<?xml version="1.0" encoding="utf-8" standalone="no"?>
<!DOCTYPE svg PUBLIC "-//W3C//DTD SVG 1.1//EN"
  "http://www.w3.org/Graphics/SVG/1.1/DTD/svg11.dtd">
<svg xmlns:xlink="http://www.w3.org/1999/xlink" width="648pt" height="504pt" viewBox="0 0 648 504" xmlns="http://www.w3.org/2000/svg" version="1.1">
 <metadata>
  <rdf:RDF xmlns:dc="http://purl.org/dc/elements/1.1/" xmlns:cc="http://creativecommons.org/ns#" xmlns:rdf="http://www.w3.org/1999/02/22-rdf-syntax-ns#">
   <cc:Work>
    <dc:type rdf:resource="http://purl.org/dc/dcmitype/StillImage"/>
    <dc:date>2022-09-23T11:13:50.544606</dc:date>
    <dc:format>image/svg+xml</dc:format>
    <dc:creator>
     <cc:Agent>
      <dc:title>Matplotlib v3.5.1, https://matplotlib.org/</dc:title>
     </cc:Agent>
    </dc:creator>
   </cc:Work>
  </rdf:RDF>
 </metadata>
 <defs>
  <style type="text/css">*{stroke-linejoin: round; stroke-linecap: butt}</style>
 </defs>
 <g id="figure_1">
  <g id="patch_1">
   <path d="M 0 504 
L 648 504 
L 648 0 
L 0 0 
z
" style="fill: #ffffff"/>
  </g>
  <g id="axes_1">
   <g id="patch_2">
    <path d="M 81 448.56 
L 583.2 448.56 
L 583.2 60.48 
L 81 60.48 
z
" style="fill: #ffffff"/>
   </g>
   <g id="line2d_1">
    <path d="M 81 168.095301 
L 583.2 168.095301 
" clip-path="url(#pbfc5a1d306)" style="fill: none; stroke: #000000; stroke-width: 0.5; stroke-linecap: square"/>
   </g>
   <g id="line2d_2">
    <path d="M 81 168.095301 
L 583.2 168.095301 
" clip-path="url(#pbfc5a1d306)" style="fill: none; stroke: #000000; stroke-width: 0.5; stroke-linecap: square"/>
   </g>
   <g id="line2d_3">
    <path d="M 81 168.095301 
L 583.2 168.095301 
" clip-path="url(#pbfc5a1d306)" style="fill: none; stroke: #000000; stroke-width: 0.5; stroke-linecap: square"/>
   </g>
   <g id="line2d_4">
    <path d="M 81 168.095301 
L 583.2 168.095301 
" clip-path="url(#pbfc5a1d306)" style="fill: none; stroke: #000000; stroke-width: 0.5; stroke-linecap: square"/>
   </g>
   <g id="matplotlib.axis_1">
    <g id="xtick_1">
     <g id="line2d_5">
      <defs>
       <path id="m93f3d84393" d="M 0 0 
L 0 3.5 
" style="stroke: #000000; stroke-width: 0.8"/>
      </defs>
      <g>
       <use xlink:href="#m93f3d84393" x="254.193881" y="448.56" style="stroke: #000000; stroke-width: 0.8"/>
      </g>
     </g>
     <g id="text_1">
      <!-- $\mathdefault{10^{2}}$ -->
      <g transform="translate(240.093881 473.281875)scale(0.2 -0.2)">
       <defs>
        <path id="TimesNewRomanPSMT-31" d="M 750 3822 
L 1781 4325 
L 1884 4325 
L 1884 747 
Q 1884 391 1914 303 
Q 1944 216 2037 169 
Q 2131 122 2419 116 
L 2419 0 
L 825 0 
L 825 116 
Q 1125 122 1212 167 
Q 1300 213 1334 289 
Q 1369 366 1369 747 
L 1369 3034 
Q 1369 3497 1338 3628 
Q 1316 3728 1258 3775 
Q 1200 3822 1119 3822 
Q 1003 3822 797 3725 
L 750 3822 
z
" transform="scale(0.015625)"/>
        <path id="TimesNewRomanPSMT-30" d="M 231 2094 
Q 231 2819 450 3342 
Q 669 3866 1031 4122 
Q 1313 4325 1613 4325 
Q 2100 4325 2488 3828 
Q 2972 3213 2972 2159 
Q 2972 1422 2759 906 
Q 2547 391 2217 158 
Q 1888 -75 1581 -75 
Q 975 -75 572 641 
Q 231 1244 231 2094 
z
M 844 2016 
Q 844 1141 1059 588 
Q 1238 122 1591 122 
Q 1759 122 1940 273 
Q 2122 425 2216 781 
Q 2359 1319 2359 2297 
Q 2359 3022 2209 3506 
Q 2097 3866 1919 4016 
Q 1791 4119 1609 4119 
Q 1397 4119 1231 3928 
Q 1006 3669 925 3112 
Q 844 2556 844 2016 
z
" transform="scale(0.015625)"/>
        <path id="TimesNewRomanPSMT-32" d="M 2934 816 
L 2638 0 
L 138 0 
L 138 116 
Q 1241 1122 1691 1759 
Q 2141 2397 2141 2925 
Q 2141 3328 1894 3587 
Q 1647 3847 1303 3847 
Q 991 3847 742 3664 
Q 494 3481 375 3128 
L 259 3128 
Q 338 3706 661 4015 
Q 984 4325 1469 4325 
Q 1984 4325 2329 3994 
Q 2675 3663 2675 3213 
Q 2675 2891 2525 2569 
Q 2294 2063 1775 1497 
Q 997 647 803 472 
L 1909 472 
Q 2247 472 2383 497 
Q 2519 522 2628 598 
Q 2738 675 2819 816 
L 2934 816 
z
" transform="scale(0.015625)"/>
       </defs>
       <use xlink:href="#TimesNewRomanPSMT-31" transform="translate(0 0.582813)"/>
       <use xlink:href="#TimesNewRomanPSMT-30" transform="translate(50 0.582813)"/>
       <use xlink:href="#TimesNewRomanPSMT-32" transform="translate(101.502813 60.695312)scale(0.7)"/>
      </g>
     </g>
    </g>
    <g id="xtick_2">
     <g id="line2d_6">
      <g>
       <use xlink:href="#m93f3d84393" x="545.291782" y="448.56" style="stroke: #000000; stroke-width: 0.8"/>
      </g>
     </g>
     <g id="text_2">
      <!-- $\mathdefault{10^{3}}$ -->
      <g transform="translate(531.191782 473.281875)scale(0.2 -0.2)">
       <defs>
        <path id="TimesNewRomanPSMT-33" d="M 325 3431 
Q 506 3859 782 4092 
Q 1059 4325 1472 4325 
Q 1981 4325 2253 3994 
Q 2459 3747 2459 3466 
Q 2459 3003 1878 2509 
Q 2269 2356 2469 2072 
Q 2669 1788 2669 1403 
Q 2669 853 2319 450 
Q 1863 -75 997 -75 
Q 569 -75 414 31 
Q 259 138 259 259 
Q 259 350 332 419 
Q 406 488 509 488 
Q 588 488 669 463 
Q 722 447 909 348 
Q 1097 250 1169 231 
Q 1284 197 1416 197 
Q 1734 197 1970 444 
Q 2206 691 2206 1028 
Q 2206 1275 2097 1509 
Q 2016 1684 1919 1775 
Q 1784 1900 1550 2001 
Q 1316 2103 1072 2103 
L 972 2103 
L 972 2197 
Q 1219 2228 1467 2375 
Q 1716 2522 1828 2728 
Q 1941 2934 1941 3181 
Q 1941 3503 1739 3701 
Q 1538 3900 1238 3900 
Q 753 3900 428 3381 
L 325 3431 
z
" transform="scale(0.015625)"/>
       </defs>
       <use xlink:href="#TimesNewRomanPSMT-31" transform="translate(0 0.582813)"/>
       <use xlink:href="#TimesNewRomanPSMT-30" transform="translate(50 0.582813)"/>
       <use xlink:href="#TimesNewRomanPSMT-33" transform="translate(101.502813 60.695312)scale(0.7)"/>
      </g>
     </g>
    </g>
    <g id="xtick_3">
     <g id="line2d_7">
      <defs>
       <path id="mec8ade4f81" d="M 0 0 
L 0 2 
" style="stroke: #000000; stroke-width: 0.6"/>
      </defs>
      <g>
       <use xlink:href="#mec8ade4f81" x="101.984975" y="448.56" style="stroke: #000000; stroke-width: 0.6"/>
      </g>
     </g>
    </g>
    <g id="xtick_4">
     <g id="line2d_8">
      <g>
       <use xlink:href="#mec8ade4f81" x="138.354379" y="448.56" style="stroke: #000000; stroke-width: 0.6"/>
      </g>
     </g>
    </g>
    <g id="xtick_5">
     <g id="line2d_9">
      <g>
       <use xlink:href="#mec8ade4f81" x="166.564681" y="448.56" style="stroke: #000000; stroke-width: 0.6"/>
      </g>
     </g>
    </g>
    <g id="xtick_6">
     <g id="line2d_10">
      <g>
       <use xlink:href="#mec8ade4f81" x="189.614175" y="448.56" style="stroke: #000000; stroke-width: 0.6"/>
      </g>
     </g>
    </g>
    <g id="xtick_7">
     <g id="line2d_11">
      <g>
       <use xlink:href="#mec8ade4f81" x="209.102245" y="448.56" style="stroke: #000000; stroke-width: 0.6"/>
      </g>
     </g>
    </g>
    <g id="xtick_8">
     <g id="line2d_12">
      <g>
       <use xlink:href="#mec8ade4f81" x="225.983579" y="448.56" style="stroke: #000000; stroke-width: 0.6"/>
      </g>
     </g>
    </g>
    <g id="xtick_9">
     <g id="line2d_13">
      <g>
       <use xlink:href="#mec8ade4f81" x="240.873971" y="448.56" style="stroke: #000000; stroke-width: 0.6"/>
      </g>
     </g>
    </g>
    <g id="xtick_10">
     <g id="line2d_14">
      <g>
       <use xlink:href="#mec8ade4f81" x="341.823081" y="448.56" style="stroke: #000000; stroke-width: 0.6"/>
      </g>
     </g>
    </g>
    <g id="xtick_11">
     <g id="line2d_15">
      <g>
       <use xlink:href="#mec8ade4f81" x="393.082877" y="448.56" style="stroke: #000000; stroke-width: 0.6"/>
      </g>
     </g>
    </g>
    <g id="xtick_12">
     <g id="line2d_16">
      <g>
       <use xlink:href="#mec8ade4f81" x="429.452281" y="448.56" style="stroke: #000000; stroke-width: 0.6"/>
      </g>
     </g>
    </g>
    <g id="xtick_13">
     <g id="line2d_17">
      <g>
       <use xlink:href="#mec8ade4f81" x="457.662582" y="448.56" style="stroke: #000000; stroke-width: 0.6"/>
      </g>
     </g>
    </g>
    <g id="xtick_14">
     <g id="line2d_18">
      <g>
       <use xlink:href="#mec8ade4f81" x="480.712077" y="448.56" style="stroke: #000000; stroke-width: 0.6"/>
      </g>
     </g>
    </g>
    <g id="xtick_15">
     <g id="line2d_19">
      <g>
       <use xlink:href="#mec8ade4f81" x="500.200147" y="448.56" style="stroke: #000000; stroke-width: 0.6"/>
      </g>
     </g>
    </g>
    <g id="xtick_16">
     <g id="line2d_20">
      <g>
       <use xlink:href="#mec8ade4f81" x="517.081481" y="448.56" style="stroke: #000000; stroke-width: 0.6"/>
      </g>
     </g>
    </g>
    <g id="xtick_17">
     <g id="line2d_21">
      <g>
       <use xlink:href="#mec8ade4f81" x="531.971873" y="448.56" style="stroke: #000000; stroke-width: 0.6"/>
      </g>
     </g>
    </g>
    <g id="text_3">
     <!-- Current Density, H$_2$ Crossover Corrected (mA/cm$^2$) -->
     <g transform="translate(123.4 498.16)scale(0.2 -0.2)">
      <defs>
       <path id="TimesNewRomanPSMT-43" d="M 3853 4334 
L 3950 2894 
L 3853 2894 
Q 3659 3541 3300 3825 
Q 2941 4109 2438 4109 
Q 2016 4109 1675 3895 
Q 1334 3681 1139 3212 
Q 944 2744 944 2047 
Q 944 1472 1128 1050 
Q 1313 628 1683 403 
Q 2053 178 2528 178 
Q 2941 178 3256 354 
Q 3572 531 3950 1056 
L 4047 994 
Q 3728 428 3303 165 
Q 2878 -97 2294 -97 
Q 1241 -97 663 684 
Q 231 1266 231 2053 
Q 231 2688 515 3219 
Q 800 3750 1298 4042 
Q 1797 4334 2388 4334 
Q 2847 4334 3294 4109 
Q 3425 4041 3481 4041 
Q 3566 4041 3628 4100 
Q 3709 4184 3744 4334 
L 3853 4334 
z
" transform="scale(0.015625)"/>
       <path id="TimesNewRomanPSMT-75" d="M 2709 2863 
L 2709 1128 
Q 2709 631 2732 520 
Q 2756 409 2807 365 
Q 2859 322 2928 322 
Q 3025 322 3147 375 
L 3191 266 
L 2334 -88 
L 2194 -88 
L 2194 519 
Q 1825 119 1631 15 
Q 1438 -88 1222 -88 
Q 981 -88 804 51 
Q 628 191 559 409 
Q 491 628 491 1028 
L 491 2306 
Q 491 2509 447 2587 
Q 403 2666 317 2708 
Q 231 2750 6 2747 
L 6 2863 
L 1009 2863 
L 1009 947 
Q 1009 547 1148 422 
Q 1288 297 1484 297 
Q 1619 297 1789 381 
Q 1959 466 2194 703 
L 2194 2325 
Q 2194 2569 2105 2655 
Q 2016 2741 1734 2747 
L 1734 2863 
L 2709 2863 
z
" transform="scale(0.015625)"/>
       <path id="TimesNewRomanPSMT-72" d="M 1038 2947 
L 1038 2303 
Q 1397 2947 1775 2947 
Q 1947 2947 2059 2842 
Q 2172 2738 2172 2600 
Q 2172 2478 2090 2393 
Q 2009 2309 1897 2309 
Q 1788 2309 1652 2417 
Q 1516 2525 1450 2525 
Q 1394 2525 1328 2463 
Q 1188 2334 1038 2041 
L 1038 669 
Q 1038 431 1097 309 
Q 1138 225 1241 169 
Q 1344 113 1538 113 
L 1538 0 
L 72 0 
L 72 113 
Q 291 113 397 181 
Q 475 231 506 341 
Q 522 394 522 644 
L 522 1753 
Q 522 2253 501 2348 
Q 481 2444 426 2487 
Q 372 2531 291 2531 
Q 194 2531 72 2484 
L 41 2597 
L 906 2947 
L 1038 2947 
z
" transform="scale(0.015625)"/>
       <path id="TimesNewRomanPSMT-65" d="M 681 1784 
Q 678 1147 991 784 
Q 1303 422 1725 422 
Q 2006 422 2214 576 
Q 2422 731 2563 1106 
L 2659 1044 
Q 2594 616 2278 264 
Q 1963 -88 1488 -88 
Q 972 -88 605 314 
Q 238 716 238 1394 
Q 238 2128 614 2539 
Q 991 2950 1559 2950 
Q 2041 2950 2350 2633 
Q 2659 2316 2659 1784 
L 681 1784 
z
M 681 1966 
L 2006 1966 
Q 1991 2241 1941 2353 
Q 1863 2528 1708 2628 
Q 1553 2728 1384 2728 
Q 1125 2728 920 2526 
Q 716 2325 681 1966 
z
" transform="scale(0.015625)"/>
       <path id="TimesNewRomanPSMT-6e" d="M 1034 2341 
Q 1538 2947 1994 2947 
Q 2228 2947 2397 2830 
Q 2566 2713 2666 2444 
Q 2734 2256 2734 1869 
L 2734 647 
Q 2734 375 2778 278 
Q 2813 200 2889 156 
Q 2966 113 3172 113 
L 3172 0 
L 1756 0 
L 1756 113 
L 1816 113 
Q 2016 113 2095 173 
Q 2175 234 2206 353 
Q 2219 400 2219 647 
L 2219 1819 
Q 2219 2209 2117 2386 
Q 2016 2563 1775 2563 
Q 1403 2563 1034 2156 
L 1034 647 
Q 1034 356 1069 288 
Q 1113 197 1189 155 
Q 1266 113 1500 113 
L 1500 0 
L 84 0 
L 84 113 
L 147 113 
Q 366 113 442 223 
Q 519 334 519 647 
L 519 1709 
Q 519 2225 495 2337 
Q 472 2450 423 2490 
Q 375 2531 294 2531 
Q 206 2531 84 2484 
L 38 2597 
L 900 2947 
L 1034 2947 
L 1034 2341 
z
" transform="scale(0.015625)"/>
       <path id="TimesNewRomanPSMT-74" d="M 1031 3803 
L 1031 2863 
L 1700 2863 
L 1700 2644 
L 1031 2644 
L 1031 788 
Q 1031 509 1111 412 
Q 1191 316 1316 316 
Q 1419 316 1516 380 
Q 1613 444 1666 569 
L 1788 569 
Q 1678 263 1478 108 
Q 1278 -47 1066 -47 
Q 922 -47 784 33 
Q 647 113 581 261 
Q 516 409 516 719 
L 516 2644 
L 63 2644 
L 63 2747 
Q 234 2816 414 2980 
Q 594 3144 734 3369 
Q 806 3488 934 3803 
L 1031 3803 
z
" transform="scale(0.015625)"/>
       <path id="TimesNewRomanPSMT-20" transform="scale(0.015625)"/>
       <path id="TimesNewRomanPSMT-44" d="M 109 0 
L 109 116 
L 269 116 
Q 538 116 650 288 
Q 719 391 719 750 
L 719 3488 
Q 719 3884 631 3984 
Q 509 4122 269 4122 
L 109 4122 
L 109 4238 
L 1834 4238 
Q 2784 4238 3279 4022 
Q 3775 3806 4076 3303 
Q 4378 2800 4378 2141 
Q 4378 1256 3841 663 
Q 3238 0 2003 0 
L 109 0 
z
M 1319 306 
Q 1716 219 1984 219 
Q 2709 219 3187 728 
Q 3666 1238 3666 2109 
Q 3666 2988 3187 3494 
Q 2709 4000 1959 4000 
Q 1678 4000 1319 3909 
L 1319 306 
z
" transform="scale(0.015625)"/>
       <path id="TimesNewRomanPSMT-73" d="M 2050 2947 
L 2050 1972 
L 1947 1972 
Q 1828 2431 1642 2597 
Q 1456 2763 1169 2763 
Q 950 2763 815 2647 
Q 681 2531 681 2391 
Q 681 2216 781 2091 
Q 878 1963 1175 1819 
L 1631 1597 
Q 2266 1288 2266 781 
Q 2266 391 1970 151 
Q 1675 -88 1309 -88 
Q 1047 -88 709 6 
Q 606 38 541 38 
Q 469 38 428 -44 
L 325 -44 
L 325 978 
L 428 978 
Q 516 541 762 319 
Q 1009 97 1316 97 
Q 1531 97 1667 223 
Q 1803 350 1803 528 
Q 1803 744 1651 891 
Q 1500 1038 1047 1263 
Q 594 1488 453 1669 
Q 313 1847 313 2119 
Q 313 2472 555 2709 
Q 797 2947 1181 2947 
Q 1350 2947 1591 2875 
Q 1750 2828 1803 2828 
Q 1853 2828 1881 2850 
Q 1909 2872 1947 2947 
L 2050 2947 
z
" transform="scale(0.015625)"/>
       <path id="TimesNewRomanPSMT-69" d="M 928 4444 
Q 1059 4444 1151 4351 
Q 1244 4259 1244 4128 
Q 1244 3997 1151 3903 
Q 1059 3809 928 3809 
Q 797 3809 703 3903 
Q 609 3997 609 4128 
Q 609 4259 701 4351 
Q 794 4444 928 4444 
z
M 1188 2947 
L 1188 647 
Q 1188 378 1227 289 
Q 1266 200 1342 156 
Q 1419 113 1622 113 
L 1622 0 
L 231 0 
L 231 113 
Q 441 113 512 153 
Q 584 194 626 287 
Q 669 381 669 647 
L 669 1750 
Q 669 2216 641 2353 
Q 619 2453 572 2492 
Q 525 2531 444 2531 
Q 356 2531 231 2484 
L 188 2597 
L 1050 2947 
L 1188 2947 
z
" transform="scale(0.015625)"/>
       <path id="TimesNewRomanPSMT-79" d="M 38 2863 
L 1372 2863 
L 1372 2747 
L 1306 2747 
Q 1166 2747 1095 2686 
Q 1025 2625 1025 2534 
Q 1025 2413 1128 2197 
L 1825 753 
L 2466 2334 
Q 2519 2463 2519 2588 
Q 2519 2644 2497 2672 
Q 2472 2706 2419 2726 
Q 2366 2747 2231 2747 
L 2231 2863 
L 3163 2863 
L 3163 2747 
Q 3047 2734 2984 2696 
Q 2922 2659 2847 2556 
Q 2819 2513 2741 2316 
L 1575 -541 
Q 1406 -956 1132 -1168 
Q 859 -1381 606 -1381 
Q 422 -1381 303 -1275 
Q 184 -1169 184 -1031 
Q 184 -900 270 -820 
Q 356 -741 506 -741 
Q 609 -741 788 -809 
Q 913 -856 944 -856 
Q 1038 -856 1148 -759 
Q 1259 -663 1372 -384 
L 1575 113 
L 547 2272 
Q 500 2369 397 2513 
Q 319 2622 269 2659 
Q 197 2709 38 2747 
L 38 2863 
z
" transform="scale(0.015625)"/>
       <path id="TimesNewRomanPSMT-2c" d="M 344 -1066 
L 344 -928 
Q 666 -822 842 -598 
Q 1019 -375 1019 -125 
Q 1019 -66 991 -25 
Q 969 3 947 3 
Q 913 3 797 -59 
Q 741 -88 678 -88 
Q 525 -88 434 3 
Q 344 94 344 253 
Q 344 406 461 515 
Q 578 625 747 625 
Q 953 625 1114 445 
Q 1275 266 1275 -31 
Q 1275 -353 1051 -629 
Q 828 -906 344 -1066 
z
" transform="scale(0.015625)"/>
       <path id="TimesNewRomanPSMT-48" d="M 1316 2272 
L 3284 2272 
L 3284 3484 
Q 3284 3809 3244 3913 
Q 3213 3991 3113 4047 
Q 2978 4122 2828 4122 
L 2678 4122 
L 2678 4238 
L 4491 4238 
L 4491 4122 
L 4341 4122 
Q 4191 4122 4056 4050 
Q 3956 4000 3920 3898 
Q 3884 3797 3884 3484 
L 3884 750 
Q 3884 428 3925 325 
Q 3956 247 4053 191 
Q 4191 116 4341 116 
L 4491 116 
L 4491 0 
L 2678 0 
L 2678 116 
L 2828 116 
Q 3088 116 3206 269 
Q 3284 369 3284 750 
L 3284 2041 
L 1316 2041 
L 1316 750 
Q 1316 428 1356 325 
Q 1388 247 1488 191 
Q 1622 116 1772 116 
L 1925 116 
L 1925 0 
L 109 0 
L 109 116 
L 259 116 
Q 522 116 641 269 
Q 716 369 716 750 
L 716 3484 
Q 716 3809 675 3913 
Q 644 3991 547 4047 
Q 409 4122 259 4122 
L 109 4122 
L 109 4238 
L 1925 4238 
L 1925 4122 
L 1772 4122 
Q 1622 4122 1488 4050 
Q 1391 4000 1353 3898 
Q 1316 3797 1316 3484 
L 1316 2272 
z
" transform="scale(0.015625)"/>
       <path id="STIXGeneral-Regular-32" d="M 3034 877 
L 2688 0 
L 186 0 
L 186 77 
L 1325 1286 
Q 1773 1754 1965 2144 
Q 2157 2534 2157 2950 
Q 2157 3379 1920 3616 
Q 1683 3853 1267 3853 
Q 922 3853 720 3673 
Q 518 3494 326 3021 
L 192 3053 
Q 301 3648 630 3987 
Q 960 4326 1523 4326 
Q 2054 4326 2380 4006 
Q 2707 3686 2707 3200 
Q 2707 2477 1888 1613 
L 832 486 
L 2330 486 
Q 2541 486 2665 569 
Q 2790 653 2944 915 
L 3034 877 
z
" transform="scale(0.015625)"/>
       <path id="TimesNewRomanPSMT-6f" d="M 1600 2947 
Q 2250 2947 2644 2453 
Q 2978 2031 2978 1484 
Q 2978 1100 2793 706 
Q 2609 313 2286 112 
Q 1963 -88 1566 -88 
Q 919 -88 538 428 
Q 216 863 216 1403 
Q 216 1797 411 2186 
Q 606 2575 925 2761 
Q 1244 2947 1600 2947 
z
M 1503 2744 
Q 1338 2744 1170 2645 
Q 1003 2547 900 2300 
Q 797 2053 797 1666 
Q 797 1041 1045 587 
Q 1294 134 1700 134 
Q 2003 134 2200 384 
Q 2397 634 2397 1244 
Q 2397 2006 2069 2444 
Q 1847 2744 1503 2744 
z
" transform="scale(0.015625)"/>
       <path id="TimesNewRomanPSMT-76" d="M 53 2863 
L 1400 2863 
L 1400 2747 
L 1313 2747 
Q 1191 2747 1127 2687 
Q 1063 2628 1063 2528 
Q 1063 2419 1128 2269 
L 1794 688 
L 2463 2328 
Q 2534 2503 2534 2594 
Q 2534 2638 2509 2666 
Q 2475 2713 2422 2730 
Q 2369 2747 2206 2747 
L 2206 2863 
L 3141 2863 
L 3141 2747 
Q 2978 2734 2916 2681 
Q 2806 2588 2719 2369 
L 1703 -88 
L 1575 -88 
L 553 2328 
Q 484 2497 421 2570 
Q 359 2644 263 2694 
Q 209 2722 53 2747 
L 53 2863 
z
" transform="scale(0.015625)"/>
       <path id="TimesNewRomanPSMT-63" d="M 2631 1088 
Q 2516 522 2178 217 
Q 1841 -88 1431 -88 
Q 944 -88 581 321 
Q 219 731 219 1428 
Q 219 2103 620 2525 
Q 1022 2947 1584 2947 
Q 2006 2947 2278 2723 
Q 2550 2500 2550 2259 
Q 2550 2141 2473 2067 
Q 2397 1994 2259 1994 
Q 2075 1994 1981 2113 
Q 1928 2178 1911 2362 
Q 1894 2547 1784 2644 
Q 1675 2738 1481 2738 
Q 1169 2738 978 2506 
Q 725 2200 725 1697 
Q 725 1184 976 792 
Q 1228 400 1656 400 
Q 1963 400 2206 609 
Q 2378 753 2541 1131 
L 2631 1088 
z
" transform="scale(0.015625)"/>
       <path id="TimesNewRomanPSMT-64" d="M 2222 322 
Q 2013 103 1813 7 
Q 1613 -88 1381 -88 
Q 913 -88 563 304 
Q 213 697 213 1313 
Q 213 1928 600 2439 
Q 988 2950 1597 2950 
Q 1975 2950 2222 2709 
L 2222 3238 
Q 2222 3728 2198 3840 
Q 2175 3953 2125 3993 
Q 2075 4034 2000 4034 
Q 1919 4034 1784 3984 
L 1744 4094 
L 2597 4444 
L 2738 4444 
L 2738 1134 
Q 2738 631 2761 520 
Q 2784 409 2836 365 
Q 2888 322 2956 322 
Q 3041 322 3181 375 
L 3216 266 
L 2366 -88 
L 2222 -88 
L 2222 322 
z
M 2222 541 
L 2222 2016 
Q 2203 2228 2109 2403 
Q 2016 2578 1861 2667 
Q 1706 2756 1559 2756 
Q 1284 2756 1069 2509 
Q 784 2184 784 1559 
Q 784 928 1059 592 
Q 1334 256 1672 256 
Q 1956 256 2222 541 
z
" transform="scale(0.015625)"/>
       <path id="TimesNewRomanPSMT-28" d="M 1988 -1253 
L 1988 -1369 
Q 1516 -1131 1200 -813 
Q 750 -359 506 256 
Q 263 872 263 1534 
Q 263 2503 741 3301 
Q 1219 4100 1988 4444 
L 1988 4313 
Q 1603 4100 1356 3731 
Q 1109 3363 987 2797 
Q 866 2231 866 1616 
Q 866 947 969 400 
Q 1050 -31 1165 -292 
Q 1281 -553 1476 -793 
Q 1672 -1034 1988 -1253 
z
" transform="scale(0.015625)"/>
       <path id="TimesNewRomanPSMT-6d" d="M 1050 2338 
Q 1363 2650 1419 2697 
Q 1559 2816 1721 2881 
Q 1884 2947 2044 2947 
Q 2313 2947 2506 2790 
Q 2700 2634 2766 2338 
Q 3088 2713 3309 2830 
Q 3531 2947 3766 2947 
Q 3994 2947 4170 2830 
Q 4347 2713 4450 2447 
Q 4519 2266 4519 1878 
L 4519 647 
Q 4519 378 4559 278 
Q 4591 209 4675 161 
Q 4759 113 4950 113 
L 4950 0 
L 3538 0 
L 3538 113 
L 3597 113 
Q 3781 113 3884 184 
Q 3956 234 3988 344 
Q 4000 397 4000 647 
L 4000 1878 
Q 4000 2228 3916 2372 
Q 3794 2572 3525 2572 
Q 3359 2572 3192 2489 
Q 3025 2406 2788 2181 
L 2781 2147 
L 2788 2013 
L 2788 647 
Q 2788 353 2820 281 
Q 2853 209 2943 161 
Q 3034 113 3253 113 
L 3253 0 
L 1806 0 
L 1806 113 
Q 2044 113 2133 169 
Q 2222 225 2256 338 
Q 2272 391 2272 647 
L 2272 1878 
Q 2272 2228 2169 2381 
Q 2031 2581 1784 2581 
Q 1616 2581 1450 2491 
Q 1191 2353 1050 2181 
L 1050 647 
Q 1050 366 1089 281 
Q 1128 197 1204 155 
Q 1281 113 1516 113 
L 1516 0 
L 100 0 
L 100 113 
Q 297 113 375 155 
Q 453 197 493 289 
Q 534 381 534 647 
L 534 1741 
Q 534 2213 506 2350 
Q 484 2453 437 2492 
Q 391 2531 309 2531 
Q 222 2531 100 2484 
L 53 2597 
L 916 2947 
L 1050 2947 
L 1050 2338 
z
" transform="scale(0.015625)"/>
       <path id="TimesNewRomanPSMT-41" d="M 2928 1419 
L 1288 1419 
L 1000 750 
Q 894 503 894 381 
Q 894 284 986 211 
Q 1078 138 1384 116 
L 1384 0 
L 50 0 
L 50 116 
Q 316 163 394 238 
Q 553 388 747 847 
L 2238 4334 
L 2347 4334 
L 3822 809 
Q 4000 384 4145 257 
Q 4291 131 4550 116 
L 4550 0 
L 2878 0 
L 2878 116 
Q 3131 128 3220 200 
Q 3309 272 3309 375 
Q 3309 513 3184 809 
L 2928 1419 
z
M 2841 1650 
L 2122 3363 
L 1384 1650 
L 2841 1650 
z
" transform="scale(0.015625)"/>
       <path id="TimesNewRomanPSMT-2f" d="M 1794 4444 
L 259 -88 
L 9 -88 
L 1544 4444 
L 1794 4444 
z
" transform="scale(0.015625)"/>
       <path id="TimesNewRomanPSMT-29" d="M 144 4313 
L 144 4444 
Q 619 4209 934 3891 
Q 1381 3434 1625 2820 
Q 1869 2206 1869 1541 
Q 1869 572 1392 -226 
Q 916 -1025 144 -1369 
L 144 -1253 
Q 528 -1038 776 -670 
Q 1025 -303 1145 264 
Q 1266 831 1266 1447 
Q 1266 2113 1163 2663 
Q 1084 3094 967 3353 
Q 850 3613 656 3853 
Q 463 4094 144 4313 
z
" transform="scale(0.015625)"/>
      </defs>
      <use xlink:href="#TimesNewRomanPSMT-43" transform="translate(0 0.409375)"/>
      <use xlink:href="#TimesNewRomanPSMT-75" transform="translate(66.699219 0.409375)"/>
      <use xlink:href="#TimesNewRomanPSMT-72" transform="translate(116.699219 0.409375)"/>
      <use xlink:href="#TimesNewRomanPSMT-72" transform="translate(150 0.409375)"/>
      <use xlink:href="#TimesNewRomanPSMT-65" transform="translate(183.300781 0.409375)"/>
      <use xlink:href="#TimesNewRomanPSMT-6e" transform="translate(227.685547 0.409375)"/>
      <use xlink:href="#TimesNewRomanPSMT-74" transform="translate(277.685547 0.409375)"/>
      <use xlink:href="#TimesNewRomanPSMT-20" transform="translate(305.46875 0.409375)"/>
      <use xlink:href="#TimesNewRomanPSMT-44" transform="translate(330.46875 0.409375)"/>
      <use xlink:href="#TimesNewRomanPSMT-65" transform="translate(402.685547 0.409375)"/>
      <use xlink:href="#TimesNewRomanPSMT-6e" transform="translate(447.070312 0.409375)"/>
      <use xlink:href="#TimesNewRomanPSMT-73" transform="translate(497.070312 0.409375)"/>
      <use xlink:href="#TimesNewRomanPSMT-69" transform="translate(535.986328 0.409375)"/>
      <use xlink:href="#TimesNewRomanPSMT-74" transform="translate(563.769531 0.409375)"/>
      <use xlink:href="#TimesNewRomanPSMT-79" transform="translate(591.552734 0.409375)"/>
      <use xlink:href="#TimesNewRomanPSMT-2c" transform="translate(641.552734 0.409375)"/>
      <use xlink:href="#TimesNewRomanPSMT-20" transform="translate(666.552734 0.409375)"/>
      <use xlink:href="#TimesNewRomanPSMT-48" transform="translate(691.552734 0.409375)"/>
      <use xlink:href="#STIXGeneral-Regular-32" transform="translate(765.312812 -12.81875)scale(0.7)"/>
      <use xlink:href="#TimesNewRomanPSMT-20" transform="translate(804.722177 0.409375)"/>
      <use xlink:href="#TimesNewRomanPSMT-43" transform="translate(829.722177 0.409375)"/>
      <use xlink:href="#TimesNewRomanPSMT-72" transform="translate(896.421396 0.409375)"/>
      <use xlink:href="#TimesNewRomanPSMT-6f" transform="translate(929.722177 0.409375)"/>
      <use xlink:href="#TimesNewRomanPSMT-73" transform="translate(979.722177 0.409375)"/>
      <use xlink:href="#TimesNewRomanPSMT-73" transform="translate(1018.638192 0.409375)"/>
      <use xlink:href="#TimesNewRomanPSMT-6f" transform="translate(1057.554208 0.409375)"/>
      <use xlink:href="#TimesNewRomanPSMT-76" transform="translate(1107.554208 0.409375)"/>
      <use xlink:href="#TimesNewRomanPSMT-65" transform="translate(1157.554208 0.409375)"/>
      <use xlink:href="#TimesNewRomanPSMT-72" transform="translate(1201.938974 0.409375)"/>
      <use xlink:href="#TimesNewRomanPSMT-20" transform="translate(1235.239755 0.409375)"/>
      <use xlink:href="#TimesNewRomanPSMT-43" transform="translate(1260.239755 0.409375)"/>
      <use xlink:href="#TimesNewRomanPSMT-6f" transform="translate(1326.938974 0.409375)"/>
      <use xlink:href="#TimesNewRomanPSMT-72" transform="translate(1376.938974 0.409375)"/>
      <use xlink:href="#TimesNewRomanPSMT-72" transform="translate(1410.239755 0.409375)"/>
      <use xlink:href="#TimesNewRomanPSMT-65" transform="translate(1443.540536 0.409375)"/>
      <use xlink:href="#TimesNewRomanPSMT-63" transform="translate(1487.925302 0.409375)"/>
      <use xlink:href="#TimesNewRomanPSMT-74" transform="translate(1532.310067 0.409375)"/>
      <use xlink:href="#TimesNewRomanPSMT-65" transform="translate(1560.093271 0.409375)"/>
      <use xlink:href="#TimesNewRomanPSMT-64" transform="translate(1604.478036 0.409375)"/>
      <use xlink:href="#TimesNewRomanPSMT-20" transform="translate(1654.478036 0.409375)"/>
      <use xlink:href="#TimesNewRomanPSMT-28" transform="translate(1679.478036 0.409375)"/>
      <use xlink:href="#TimesNewRomanPSMT-6d" transform="translate(1712.778817 0.409375)"/>
      <use xlink:href="#TimesNewRomanPSMT-41" transform="translate(1790.562021 0.409375)"/>
      <use xlink:href="#TimesNewRomanPSMT-2f" transform="translate(1862.778817 0.409375)"/>
      <use xlink:href="#TimesNewRomanPSMT-63" transform="translate(1890.562021 0.409375)"/>
      <use xlink:href="#TimesNewRomanPSMT-6d" transform="translate(1934.946786 0.409375)"/>
      <use xlink:href="#STIXGeneral-Regular-32" transform="translate(2014.273271 35.684375)scale(0.7)"/>
      <use xlink:href="#TimesNewRomanPSMT-29" transform="translate(2053.682635 0.409375)"/>
     </g>
    </g>
   </g>
   <g id="matplotlib.axis_2">
    <g id="ytick_1">
     <g id="line2d_22">
      <defs>
       <path id="maba7afead8" d="M 0 0 
L -3.5 0 
" style="stroke: #000000; stroke-width: 0.8"/>
      </defs>
      <g>
       <use xlink:href="#maba7afead8" x="81" y="391.727917" style="stroke: #000000; stroke-width: 0.8"/>
      </g>
     </g>
     <g id="text_4">
      <!-- 0.84 -->
      <g transform="translate(39 398.671667)scale(0.2 -0.2)">
       <defs>
        <path id="TimesNewRomanPSMT-2e" d="M 800 606 
Q 947 606 1047 504 
Q 1147 403 1147 259 
Q 1147 116 1045 14 
Q 944 -88 800 -88 
Q 656 -88 554 14 
Q 453 116 453 259 
Q 453 406 554 506 
Q 656 606 800 606 
z
" transform="scale(0.015625)"/>
        <path id="TimesNewRomanPSMT-38" d="M 1228 2134 
Q 725 2547 579 2797 
Q 434 3047 434 3316 
Q 434 3728 753 4026 
Q 1072 4325 1600 4325 
Q 2113 4325 2425 4047 
Q 2738 3769 2738 3413 
Q 2738 3175 2569 2928 
Q 2400 2681 1866 2347 
Q 2416 1922 2594 1678 
Q 2831 1359 2831 1006 
Q 2831 559 2490 242 
Q 2150 -75 1597 -75 
Q 994 -75 656 303 
Q 388 606 388 966 
Q 388 1247 577 1523 
Q 766 1800 1228 2134 
z
M 1719 2469 
Q 2094 2806 2194 3001 
Q 2294 3197 2294 3444 
Q 2294 3772 2109 3958 
Q 1925 4144 1606 4144 
Q 1288 4144 1088 3959 
Q 888 3775 888 3528 
Q 888 3366 970 3203 
Q 1053 3041 1206 2894 
L 1719 2469 
z
M 1375 2016 
Q 1116 1797 991 1539 
Q 866 1281 866 981 
Q 866 578 1086 336 
Q 1306 94 1647 94 
Q 1984 94 2187 284 
Q 2391 475 2391 747 
Q 2391 972 2272 1150 
Q 2050 1481 1375 2016 
z
" transform="scale(0.015625)"/>
        <path id="TimesNewRomanPSMT-34" d="M 2978 1563 
L 2978 1119 
L 2409 1119 
L 2409 0 
L 1894 0 
L 1894 1119 
L 100 1119 
L 100 1519 
L 2066 4325 
L 2409 4325 
L 2409 1563 
L 2978 1563 
z
M 1894 1563 
L 1894 3666 
L 406 1563 
L 1894 1563 
z
" transform="scale(0.015625)"/>
       </defs>
       <use xlink:href="#TimesNewRomanPSMT-30"/>
       <use xlink:href="#TimesNewRomanPSMT-2e" x="50"/>
       <use xlink:href="#TimesNewRomanPSMT-38" x="75"/>
       <use xlink:href="#TimesNewRomanPSMT-34" x="125"/>
      </g>
     </g>
    </g>
    <g id="ytick_2">
     <g id="line2d_23">
      <g>
       <use xlink:href="#maba7afead8" x="81" y="317.183712" style="stroke: #000000; stroke-width: 0.8"/>
      </g>
     </g>
     <g id="text_5">
      <!-- 0.86 -->
      <g transform="translate(39 324.127462)scale(0.2 -0.2)">
       <defs>
        <path id="TimesNewRomanPSMT-36" d="M 2869 4325 
L 2869 4209 
Q 2456 4169 2195 4045 
Q 1934 3922 1679 3669 
Q 1425 3416 1258 3105 
Q 1091 2794 978 2366 
Q 1428 2675 1881 2675 
Q 2316 2675 2634 2325 
Q 2953 1975 2953 1425 
Q 2953 894 2631 456 
Q 2244 -75 1606 -75 
Q 1172 -75 869 213 
Q 275 772 275 1663 
Q 275 2231 503 2743 
Q 731 3256 1154 3653 
Q 1578 4050 1965 4187 
Q 2353 4325 2688 4325 
L 2869 4325 
z
M 925 2138 
Q 869 1716 869 1456 
Q 869 1156 980 804 
Q 1091 453 1309 247 
Q 1469 100 1697 100 
Q 1969 100 2183 356 
Q 2397 613 2397 1088 
Q 2397 1622 2184 2012 
Q 1972 2403 1581 2403 
Q 1463 2403 1327 2353 
Q 1191 2303 925 2138 
z
" transform="scale(0.015625)"/>
       </defs>
       <use xlink:href="#TimesNewRomanPSMT-30"/>
       <use xlink:href="#TimesNewRomanPSMT-2e" x="50"/>
       <use xlink:href="#TimesNewRomanPSMT-38" x="75"/>
       <use xlink:href="#TimesNewRomanPSMT-36" x="125"/>
      </g>
     </g>
    </g>
    <g id="ytick_3">
     <g id="line2d_24">
      <g>
       <use xlink:href="#maba7afead8" x="81" y="242.639506" style="stroke: #000000; stroke-width: 0.8"/>
      </g>
     </g>
     <g id="text_6">
      <!-- 0.88 -->
      <g transform="translate(39 249.583256)scale(0.2 -0.2)">
       <use xlink:href="#TimesNewRomanPSMT-30"/>
       <use xlink:href="#TimesNewRomanPSMT-2e" x="50"/>
       <use xlink:href="#TimesNewRomanPSMT-38" x="75"/>
       <use xlink:href="#TimesNewRomanPSMT-38" x="125"/>
      </g>
     </g>
    </g>
    <g id="ytick_4">
     <g id="line2d_25">
      <g>
       <use xlink:href="#maba7afead8" x="81" y="168.095301" style="stroke: #000000; stroke-width: 0.8"/>
      </g>
     </g>
     <g id="text_7">
      <!-- 0.90 -->
      <g transform="translate(39 175.039051)scale(0.2 -0.2)">
       <defs>
        <path id="TimesNewRomanPSMT-39" d="M 338 -88 
L 338 28 
Q 744 34 1094 217 
Q 1444 400 1770 856 
Q 2097 1313 2225 1859 
Q 1734 1544 1338 1544 
Q 891 1544 572 1889 
Q 253 2234 253 2806 
Q 253 3363 572 3797 
Q 956 4325 1575 4325 
Q 2097 4325 2469 3894 
Q 2925 3359 2925 2575 
Q 2925 1869 2578 1258 
Q 2231 647 1613 244 
Q 1109 -88 516 -88 
L 338 -88 
z
M 2275 2091 
Q 2331 2497 2331 2741 
Q 2331 3044 2228 3395 
Q 2125 3747 1936 3934 
Q 1747 4122 1506 4122 
Q 1228 4122 1018 3872 
Q 809 3622 809 3128 
Q 809 2469 1088 2097 
Q 1291 1828 1588 1828 
Q 1731 1828 1928 1897 
Q 2125 1966 2275 2091 
z
" transform="scale(0.015625)"/>
       </defs>
       <use xlink:href="#TimesNewRomanPSMT-30"/>
       <use xlink:href="#TimesNewRomanPSMT-2e" x="50"/>
       <use xlink:href="#TimesNewRomanPSMT-39" x="75"/>
       <use xlink:href="#TimesNewRomanPSMT-30" x="125"/>
      </g>
     </g>
    </g>
    <g id="ytick_5">
     <g id="line2d_26">
      <g>
       <use xlink:href="#maba7afead8" x="81" y="93.551096" style="stroke: #000000; stroke-width: 0.8"/>
      </g>
     </g>
     <g id="text_8">
      <!-- 0.92 -->
      <g transform="translate(39 100.494846)scale(0.2 -0.2)">
       <use xlink:href="#TimesNewRomanPSMT-30"/>
       <use xlink:href="#TimesNewRomanPSMT-2e" x="50"/>
       <use xlink:href="#TimesNewRomanPSMT-39" x="75"/>
       <use xlink:href="#TimesNewRomanPSMT-32" x="125"/>
      </g>
     </g>
    </g>
    <g id="text_9">
     <!-- V$_{iR-free}$ (V) -->
     <g transform="translate(29.4 302.72)rotate(-90)scale(0.2 -0.2)">
      <defs>
       <path id="TimesNewRomanPSMT-56" d="M 4544 4238 
L 4544 4122 
Q 4319 4081 4203 3978 
Q 4038 3825 3909 3509 
L 2431 -97 
L 2316 -97 
L 728 3556 
Q 606 3838 556 3900 
Q 478 3997 364 4051 
Q 250 4106 56 4122 
L 56 4238 
L 1788 4238 
L 1788 4122 
Q 1494 4094 1406 4022 
Q 1319 3950 1319 3838 
Q 1319 3681 1463 3350 
L 2541 866 
L 3541 3319 
Q 3688 3681 3688 3822 
Q 3688 3913 3597 3995 
Q 3506 4078 3291 4113 
Q 3275 4116 3238 4122 
L 3238 4238 
L 4544 4238 
z
" transform="scale(0.015625)"/>
       <path id="STIXGeneral-Italic-69" d="M 1690 3834 
Q 1690 3699 1597 3603 
Q 1504 3507 1376 3507 
Q 1235 3507 1152 3600 
Q 1069 3693 1069 3846 
Q 1069 3994 1155 4090 
Q 1242 4186 1370 4186 
Q 1498 4186 1594 4080 
Q 1690 3974 1690 3834 
z
M 1421 730 
L 1504 659 
Q 1235 243 1049 86 
Q 864 -70 627 -70 
Q 314 -70 314 282 
Q 314 467 454 992 
L 762 2125 
Q 819 2330 819 2406 
Q 819 2502 745 2528 
Q 672 2554 410 2560 
L 410 2662 
Q 704 2688 1434 2822 
L 1459 2803 
L 858 608 
Q 794 390 794 326 
Q 794 230 883 230 
Q 1043 230 1421 730 
z
" transform="scale(0.015625)"/>
       <path id="STIXGeneral-Italic-52" d="M 845 4179 
L 2458 4179 
Q 3078 4179 3420 3936 
Q 3763 3693 3763 3277 
Q 3763 2778 3341 2458 
Q 3091 2266 2502 2131 
L 3072 627 
Q 3181 333 3299 217 
Q 3418 102 3629 102 
L 3629 0 
L 2688 0 
L 1901 2074 
L 1478 2106 
L 1126 806 
Q 1043 512 1043 403 
Q 1043 256 1126 192 
Q 1210 128 1472 102 
L 1472 0 
L -83 0 
L -83 102 
Q 173 134 278 243 
Q 384 352 461 646 
L 1222 3405 
Q 1299 3699 1299 3808 
Q 1299 3923 1210 3987 
Q 1133 4038 845 4077 
L 845 4179 
z
M 1958 3795 
L 1555 2342 
Q 1754 2310 1882 2310 
Q 2451 2310 2771 2566 
Q 3091 2822 3091 3270 
Q 3091 3603 2892 3795 
Q 2694 3987 2323 3987 
Q 2010 3987 1958 3795 
z
" transform="scale(0.015625)"/>
       <path id="STIXGeneral-Regular-2212" d="M 3974 1408 
L 410 1408 
L 410 1830 
L 3974 1830 
L 3974 1408 
z
" transform="scale(0.015625)"/>
       <path id="STIXGeneral-Italic-66" d="M 262 2739 
L 858 2739 
Q 1107 3546 1318 3846 
Q 1664 4339 2163 4339 
Q 2400 4339 2557 4227 
Q 2714 4115 2714 3942 
Q 2714 3834 2634 3750 
Q 2554 3667 2445 3667 
Q 2355 3667 2281 3737 
Q 2208 3808 2208 3917 
Q 2208 3981 2240 4038 
Q 2272 4096 2272 4115 
Q 2272 4198 2131 4198 
Q 1862 4198 1676 3849 
Q 1491 3501 1350 2739 
L 2035 2739 
L 1997 2534 
L 1306 2534 
L 845 486 
Q 435 -1325 -435 -1325 
Q -653 -1325 -797 -1213 
Q -941 -1101 -941 -934 
Q -941 -826 -870 -746 
Q -800 -666 -698 -666 
Q -589 -666 -521 -733 
Q -454 -800 -454 -902 
Q -454 -947 -483 -1001 
Q -512 -1056 -512 -1088 
Q -512 -1190 -384 -1190 
Q 13 -1190 237 -154 
L 800 2534 
L 218 2534 
L 262 2739 
z
" transform="scale(0.015625)"/>
       <path id="STIXGeneral-Italic-72" d="M 1126 1427 
L 1229 1651 
Q 1446 2131 1830 2534 
Q 2106 2822 2336 2822 
Q 2470 2822 2553 2732 
Q 2637 2643 2637 2496 
Q 2637 2349 2557 2249 
Q 2477 2150 2336 2150 
Q 2214 2150 2112 2317 
Q 2061 2406 2010 2406 
Q 1837 2406 1485 1805 
Q 1267 1434 1136 1104 
Q 1005 774 774 0 
L 288 0 
L 806 1869 
Q 909 2246 909 2394 
Q 909 2560 666 2560 
Q 614 2560 467 2541 
L 467 2650 
L 1459 2822 
L 1478 2810 
L 1126 1427 
z
" transform="scale(0.015625)"/>
       <path id="STIXGeneral-Italic-65" d="M 2291 698 
L 2368 621 
Q 1805 -70 1062 -70 
Q 672 -70 435 170 
Q 198 410 198 806 
Q 198 1555 796 2188 
Q 1395 2822 2112 2822 
Q 2362 2822 2499 2707 
Q 2637 2592 2637 2387 
Q 2637 1965 2147 1632 
Q 1658 1299 819 1190 
Q 755 1062 755 800 
Q 755 538 918 378 
Q 1082 218 1350 218 
Q 1562 218 1754 317 
Q 1946 416 2291 698 
z
M 973 1613 
L 864 1331 
Q 1581 1504 1894 1805 
Q 2214 2112 2214 2426 
Q 2214 2675 1990 2675 
Q 1722 2675 1430 2364 
Q 1139 2054 973 1613 
z
" transform="scale(0.015625)"/>
      </defs>
      <use xlink:href="#TimesNewRomanPSMT-56" transform="translate(0 0.5625)"/>
      <use xlink:href="#STIXGeneral-Italic-69" transform="translate(73.760078 -12.665625)scale(0.7)"/>
      <use xlink:href="#STIXGeneral-Italic-52" transform="translate(93.22007 -12.665625)scale(0.7)"/>
      <use xlink:href="#STIXGeneral-Regular-2212" transform="translate(146.098061 -12.665625)scale(0.7)"/>
      <use xlink:href="#STIXGeneral-Italic-66" transform="translate(204.156047 -12.665625)scale(0.7)"/>
      <use xlink:href="#STIXGeneral-Italic-72" transform="translate(223.616039 -12.665625)scale(0.7)"/>
      <use xlink:href="#STIXGeneral-Italic-65" transform="translate(250.846035 -12.665625)scale(0.7)"/>
      <use xlink:href="#STIXGeneral-Italic-65" transform="translate(281.92603 -12.665625)scale(0.7)"/>
      <use xlink:href="#TimesNewRomanPSMT-20" transform="translate(317.415401 0.5625)"/>
      <use xlink:href="#TimesNewRomanPSMT-28" transform="translate(342.415401 0.5625)"/>
      <use xlink:href="#TimesNewRomanPSMT-56" transform="translate(375.716182 0.5625)"/>
      <use xlink:href="#TimesNewRomanPSMT-29" transform="translate(447.932979 0.5625)"/>
     </g>
    </g>
   </g>
   <g id="line2d_27">
    <path d="M 560.372727 369.616633 
L 529.047945 355.387671 
L 492.288159 332.17845 
L 448.251856 300.844922 
L 393.181246 259.851586 
L 324.497854 207.056693 
L 236.974972 141.080799 
L 193.330564 111.95608 
L 147.254396 80.863508 
" clip-path="url(#pbfc5a1d306)" style="fill: none; stroke: #0173b2; stroke-width: 1.5; stroke-linecap: square"/>
    <defs>
     <path id="m2f451a436b" d="M 0 3 
C 0.795609 3 1.55874 2.683901 2.12132 2.12132 
C 2.683901 1.55874 3 0.795609 3 0 
C 3 -0.795609 2.683901 -1.55874 2.12132 -2.12132 
C 1.55874 -2.683901 0.795609 -3 0 -3 
C -0.795609 -3 -1.55874 -2.683901 -2.12132 -2.12132 
C -2.683901 -1.55874 -3 -0.795609 -3 0 
C -3 0.795609 -2.683901 1.55874 -2.12132 2.12132 
C -1.55874 2.683901 -0.795609 3 0 3 
z
" style="stroke: #0173b2"/>
    </defs>
    <g clip-path="url(#pbfc5a1d306)">
     <use xlink:href="#m2f451a436b" x="560.372727" y="369.616633" style="fill-opacity: 0; stroke: #0173b2"/>
     <use xlink:href="#m2f451a436b" x="529.047945" y="355.387671" style="fill-opacity: 0; stroke: #0173b2"/>
     <use xlink:href="#m2f451a436b" x="492.288159" y="332.17845" style="fill-opacity: 0; stroke: #0173b2"/>
     <use xlink:href="#m2f451a436b" x="448.251856" y="300.844922" style="fill-opacity: 0; stroke: #0173b2"/>
     <use xlink:href="#m2f451a436b" x="393.181246" y="259.851586" style="fill-opacity: 0; stroke: #0173b2"/>
     <use xlink:href="#m2f451a436b" x="324.497854" y="207.056693" style="fill-opacity: 0; stroke: #0173b2"/>
     <use xlink:href="#m2f451a436b" x="236.974972" y="141.080799" style="fill-opacity: 0; stroke: #0173b2"/>
     <use xlink:href="#m2f451a436b" x="193.330564" y="111.95608" style="fill-opacity: 0; stroke: #0173b2"/>
     <use xlink:href="#m2f451a436b" x="147.254396" y="80.863508" style="fill-opacity: 0; stroke: #0173b2"/>
    </g>
   </g>
   <g id="line2d_28">
    <path d="M 560.372727 382.213938 
L 529.047945 359.155953 
L 492.288159 332.097294 
L 448.251856 299.682434 
L 393.181246 259.145286 
L 324.497854 208.587851 
L 236.974972 144.16278 
L 193.330564 112.036392 
L 147.254396 78.12 
" clip-path="url(#pbfc5a1d306)" style="fill: none; stroke-dasharray: 1.5,2.475; stroke-dashoffset: 0; stroke: #0173b2; stroke-width: 1.5"/>
   </g>
   <g id="line2d_29">
    <defs>
     <path id="mf1ffb50740" d="M 0 -2.5 
L -0.561285 -0.772542 
L -2.377641 -0.772542 
L -0.908178 0.295085 
L -1.469463 2.022542 
L -0 0.954915 
L 1.469463 2.022542 
L 0.908178 0.295085 
L 2.377641 -0.772542 
L 0.561285 -0.772542 
z
" style="stroke: #000000; stroke-linejoin: bevel"/>
    </defs>
    <g clip-path="url(#pbfc5a1d306)">
     <use xlink:href="#mf1ffb50740" x="269.48783" y="168.095301" style="stroke: #000000; stroke-linejoin: bevel"/>
    </g>
   </g>
   <g id="line2d_30">
    <path d="M 553.732655 401.599584 
L 521.937164 381.125799 
L 484.20844 352.617796 
L 438.757037 316.57422 
L 382.509111 270.952446 
L 313.458885 213.629967 
L 226.446461 144.207935 
L 183.34181 114.097054 
L 138.825322 82.151669 
" clip-path="url(#pbfc5a1d306)" style="fill: none; stroke: #de8f05; stroke-width: 1.5; stroke-linecap: square"/>
    <defs>
     <path id="m1134105cb0" d="M 0 3 
C 0.795609 3 1.55874 2.683901 2.12132 2.12132 
C 2.683901 1.55874 3 0.795609 3 0 
C 3 -0.795609 2.683901 -1.55874 2.12132 -2.12132 
C 1.55874 -2.683901 0.795609 -3 0 -3 
C -0.795609 -3 -1.55874 -2.683901 -2.12132 -2.12132 
C -2.683901 -1.55874 -3 -0.795609 -3 0 
C -3 0.795609 -2.683901 1.55874 -2.12132 2.12132 
C -1.55874 2.683901 -0.795609 3 0 3 
z
" style="stroke: #de8f05"/>
    </defs>
    <g clip-path="url(#pbfc5a1d306)">
     <use xlink:href="#m1134105cb0" x="553.732655" y="401.599584" style="fill-opacity: 0; stroke: #de8f05"/>
     <use xlink:href="#m1134105cb0" x="521.937164" y="381.125799" style="fill-opacity: 0; stroke: #de8f05"/>
     <use xlink:href="#m1134105cb0" x="484.20844" y="352.617796" style="fill-opacity: 0; stroke: #de8f05"/>
     <use xlink:href="#m1134105cb0" x="438.757037" y="316.57422" style="fill-opacity: 0; stroke: #de8f05"/>
     <use xlink:href="#m1134105cb0" x="382.509111" y="270.952446" style="fill-opacity: 0; stroke: #de8f05"/>
     <use xlink:href="#m1134105cb0" x="313.458885" y="213.629967" style="fill-opacity: 0; stroke: #de8f05"/>
     <use xlink:href="#m1134105cb0" x="226.446461" y="144.207935" style="fill-opacity: 0; stroke: #de8f05"/>
     <use xlink:href="#m1134105cb0" x="183.34181" y="114.097054" style="fill-opacity: 0; stroke: #de8f05"/>
     <use xlink:href="#m1134105cb0" x="138.825322" y="82.151669" style="fill-opacity: 0; stroke: #de8f05"/>
    </g>
   </g>
   <g id="line2d_31">
    <path d="M 553.732655 406.207334 
L 521.937164 381.099301 
L 484.20844 351.305956 
L 438.757037 315.414222 
L 382.509111 270.996769 
L 313.458885 216.469688 
L 226.446461 147.758348 
L 183.34181 113.719781 
L 138.825322 78.566324 
" clip-path="url(#pbfc5a1d306)" style="fill: none; stroke-dasharray: 1.5,2.475; stroke-dashoffset: 0; stroke: #de8f05; stroke-width: 1.5"/>
   </g>
   <g id="line2d_32">
    <g clip-path="url(#pbfc5a1d306)">
     <use xlink:href="#mf1ffb50740" x="252.200108" y="168.095301" style="stroke: #000000; stroke-linejoin: bevel"/>
    </g>
   </g>
   <g id="line2d_33">
    <path d="M 548.373619 400.771227 
L 515.08864 383.298711 
L 475.912068 356.607368 
L 428.622725 321.184461 
L 370.180464 275.509298 
L 297.956793 217.303402 
L 208.898456 146.282752 
L 165.50742 115.637789 
L 120.347804 83.298789 
" clip-path="url(#pbfc5a1d306)" style="fill: none; stroke: #029e73; stroke-width: 1.5; stroke-linecap: square"/>
    <defs>
     <path id="m01fc7c23d4" d="M 0 3 
C 0.795609 3 1.55874 2.683901 2.12132 2.12132 
C 2.683901 1.55874 3 0.795609 3 0 
C 3 -0.795609 2.683901 -1.55874 2.12132 -2.12132 
C 1.55874 -2.683901 0.795609 -3 0 -3 
C -0.795609 -3 -1.55874 -2.683901 -2.12132 -2.12132 
C -2.683901 -1.55874 -3 -0.795609 -3 0 
C -3 0.795609 -2.683901 1.55874 -2.12132 2.12132 
C -1.55874 2.683901 -0.795609 3 0 3 
z
" style="stroke: #029e73"/>
    </defs>
    <g clip-path="url(#pbfc5a1d306)">
     <use xlink:href="#m01fc7c23d4" x="548.373619" y="400.771227" style="fill-opacity: 0; stroke: #029e73"/>
     <use xlink:href="#m01fc7c23d4" x="515.08864" y="383.298711" style="fill-opacity: 0; stroke: #029e73"/>
     <use xlink:href="#m01fc7c23d4" x="475.912068" y="356.607368" style="fill-opacity: 0; stroke: #029e73"/>
     <use xlink:href="#m01fc7c23d4" x="428.622725" y="321.184461" style="fill-opacity: 0; stroke: #029e73"/>
     <use xlink:href="#m01fc7c23d4" x="370.180464" y="275.509298" style="fill-opacity: 0; stroke: #029e73"/>
     <use xlink:href="#m01fc7c23d4" x="297.956793" y="217.303402" style="fill-opacity: 0; stroke: #029e73"/>
     <use xlink:href="#m01fc7c23d4" x="208.898456" y="146.282752" style="fill-opacity: 0; stroke: #029e73"/>
     <use xlink:href="#m01fc7c23d4" x="165.50742" y="115.637789" style="fill-opacity: 0; stroke: #029e73"/>
     <use xlink:href="#m01fc7c23d4" x="120.347804" y="83.298789" style="fill-opacity: 0; stroke: #029e73"/>
    </g>
   </g>
   <g id="line2d_34">
    <path d="M 548.373619 413.198157 
L 515.08864 387.334538 
L 475.912068 356.892941 
L 428.622725 320.147429 
L 370.180464 274.735702 
L 297.956793 218.615327 
L 208.898456 149.413814 
L 165.50742 115.697428 
L 120.347804 80.606791 
" clip-path="url(#pbfc5a1d306)" style="fill: none; stroke-dasharray: 1.5,2.475; stroke-dashoffset: 0; stroke: #029e73; stroke-width: 1.5"/>
   </g>
   <g id="line2d_35">
    <g clip-path="url(#pbfc5a1d306)">
     <use xlink:href="#mf1ffb50740" x="232.940447" y="168.095301" style="stroke: #000000; stroke-linejoin: bevel"/>
    </g>
   </g>
   <g id="line2d_36">
    <path d="M 544.884822 421.054801 
L 510.631189 400.286934 
L 469.651854 371.619599 
L 420.046099 333.747759 
L 359.043579 284.621253 
L 284.80993 223.240345 
L 192.988733 149.764698 
L 148.900775 118.100273 
L 103.827273 84.997528 
" clip-path="url(#pbfc5a1d306)" style="fill: none; stroke: #d55e00; stroke-width: 1.5; stroke-linecap: square"/>
    <defs>
     <path id="mf713aaa56a" d="M 0 3 
C 0.795609 3 1.55874 2.683901 2.12132 2.12132 
C 2.683901 1.55874 3 0.795609 3 0 
C 3 -0.795609 2.683901 -1.55874 2.12132 -2.12132 
C 1.55874 -2.683901 0.795609 -3 0 -3 
C -0.795609 -3 -1.55874 -2.683901 -2.12132 -2.12132 
C -2.683901 -1.55874 -3 -0.795609 -3 0 
C -3 0.795609 -2.683901 1.55874 -2.12132 2.12132 
C -1.55874 2.683901 -0.795609 3 0 3 
z
" style="stroke: #d55e00"/>
    </defs>
    <g clip-path="url(#pbfc5a1d306)">
     <use xlink:href="#mf713aaa56a" x="544.884822" y="421.054801" style="fill-opacity: 0; stroke: #d55e00"/>
     <use xlink:href="#mf713aaa56a" x="510.631189" y="400.286934" style="fill-opacity: 0; stroke: #d55e00"/>
     <use xlink:href="#mf713aaa56a" x="469.651854" y="371.619599" style="fill-opacity: 0; stroke: #d55e00"/>
     <use xlink:href="#mf713aaa56a" x="420.046099" y="333.747759" style="fill-opacity: 0; stroke: #d55e00"/>
     <use xlink:href="#mf713aaa56a" x="359.043579" y="284.621253" style="fill-opacity: 0; stroke: #d55e00"/>
     <use xlink:href="#mf713aaa56a" x="284.80993" y="223.240345" style="fill-opacity: 0; stroke: #d55e00"/>
     <use xlink:href="#mf713aaa56a" x="192.988733" y="149.764698" style="fill-opacity: 0; stroke: #d55e00"/>
     <use xlink:href="#mf713aaa56a" x="148.900775" y="118.100273" style="fill-opacity: 0; stroke: #d55e00"/>
     <use xlink:href="#mf713aaa56a" x="103.827273" y="84.997528" style="fill-opacity: 0; stroke: #d55e00"/>
    </g>
   </g>
   <g id="line2d_37">
    <path d="M 544.884822 430.92 
L 510.631189 403.842286 
L 469.651854 371.44786 
L 420.046099 332.234196 
L 359.043579 284.011316 
L 284.80993 225.329144 
L 192.988733 152.743905 
L 148.900775 117.892093 
L 103.827273 82.261203 
" clip-path="url(#pbfc5a1d306)" style="fill: none; stroke-dasharray: 1.5,2.475; stroke-dashoffset: 0; stroke: #d55e00; stroke-width: 1.5"/>
   </g>
   <g id="line2d_38">
    <g clip-path="url(#pbfc5a1d306)">
     <use xlink:href="#mf1ffb50740" x="212.408433" y="168.095301" style="stroke: #000000; stroke-linejoin: bevel"/>
    </g>
   </g>
   <g id="patch_3">
    <path d="M 81 448.56 
L 81 60.48 
" style="fill: none; stroke: #000000; stroke-width: 0.8; stroke-linejoin: miter; stroke-linecap: square"/>
   </g>
   <g id="patch_4">
    <path d="M 583.2 448.56 
L 583.2 60.48 
" style="fill: none; stroke: #000000; stroke-width: 0.8; stroke-linejoin: miter; stroke-linecap: square"/>
   </g>
   <g id="patch_5">
    <path d="M 81 448.56 
L 583.2 448.56 
" style="fill: none; stroke: #000000; stroke-width: 0.8; stroke-linejoin: miter; stroke-linecap: square"/>
   </g>
   <g id="patch_6">
    <path d="M 81 60.48 
L 583.2 60.48 
" style="fill: none; stroke: #000000; stroke-width: 0.8; stroke-linejoin: miter; stroke-linecap: square"/>
   </g>
   <g id="text_10">
    <!-- i at 0.9 V  -->
    <g transform="translate(166.564681 307.955417)scale(0.2 -0.2)">
     <defs>
      <path id="TimesNewRomanPSMT-61" d="M 1822 413 
Q 1381 72 1269 19 
Q 1100 -59 909 -59 
Q 613 -59 420 144 
Q 228 347 228 678 
Q 228 888 322 1041 
Q 450 1253 767 1440 
Q 1084 1628 1822 1897 
L 1822 2009 
Q 1822 2438 1686 2597 
Q 1550 2756 1291 2756 
Q 1094 2756 978 2650 
Q 859 2544 859 2406 
L 866 2225 
Q 866 2081 792 2003 
Q 719 1925 600 1925 
Q 484 1925 411 2006 
Q 338 2088 338 2228 
Q 338 2497 613 2722 
Q 888 2947 1384 2947 
Q 1766 2947 2009 2819 
Q 2194 2722 2281 2516 
Q 2338 2381 2338 1966 
L 2338 994 
Q 2338 584 2353 492 
Q 2369 400 2405 369 
Q 2441 338 2488 338 
Q 2538 338 2575 359 
Q 2641 400 2828 588 
L 2828 413 
Q 2478 -56 2159 -56 
Q 2006 -56 1915 50 
Q 1825 156 1822 413 
z
M 1822 616 
L 1822 1706 
Q 1350 1519 1213 1441 
Q 966 1303 859 1153 
Q 753 1003 753 825 
Q 753 600 887 451 
Q 1022 303 1197 303 
Q 1434 303 1822 616 
z
" transform="scale(0.015625)"/>
     </defs>
     <use xlink:href="#TimesNewRomanPSMT-69"/>
     <use xlink:href="#TimesNewRomanPSMT-20" x="27.783203"/>
     <use xlink:href="#TimesNewRomanPSMT-61" x="52.783203"/>
     <use xlink:href="#TimesNewRomanPSMT-74" x="97.167969"/>
     <use xlink:href="#TimesNewRomanPSMT-20" x="124.951172"/>
     <use xlink:href="#TimesNewRomanPSMT-30" x="149.951172"/>
     <use xlink:href="#TimesNewRomanPSMT-2e" x="199.951172"/>
     <use xlink:href="#TimesNewRomanPSMT-39" x="224.951172"/>
     <use xlink:href="#TimesNewRomanPSMT-20" x="274.951172"/>
     <use xlink:href="#TimesNewRomanPSMT-56" x="298.201172"/>
     <use xlink:href="#TimesNewRomanPSMT-20" x="368.667969"/>
    </g>
    <!-- BOT: 112.86 mA/cm$^2$  -->
    <g transform="translate(166.564681 328.898542)scale(0.2 -0.2)">
     <defs>
      <path id="TimesNewRomanPSMT-42" d="M 2956 2163 
Q 3397 2069 3616 1863 
Q 3919 1575 3919 1159 
Q 3919 844 3719 555 
Q 3519 266 3170 133 
Q 2822 0 2106 0 
L 106 0 
L 106 116 
L 266 116 
Q 531 116 647 284 
Q 719 394 719 750 
L 719 3488 
Q 719 3881 628 3984 
Q 506 4122 266 4122 
L 106 4122 
L 106 4238 
L 1938 4238 
Q 2450 4238 2759 4163 
Q 3228 4050 3475 3764 
Q 3722 3478 3722 3106 
Q 3722 2788 3528 2536 
Q 3334 2284 2956 2163 
z
M 1319 2331 
Q 1434 2309 1582 2298 
Q 1731 2288 1909 2288 
Q 2366 2288 2595 2386 
Q 2825 2484 2947 2687 
Q 3069 2891 3069 3131 
Q 3069 3503 2766 3765 
Q 2463 4028 1881 4028 
Q 1569 4028 1319 3959 
L 1319 2331 
z
M 1319 306 
Q 1681 222 2034 222 
Q 2600 222 2897 476 
Q 3194 731 3194 1106 
Q 3194 1353 3059 1581 
Q 2925 1809 2622 1940 
Q 2319 2072 1872 2072 
Q 1678 2072 1540 2065 
Q 1403 2059 1319 2044 
L 1319 306 
z
" transform="scale(0.015625)"/>
      <path id="TimesNewRomanPSMT-4f" d="M 2341 4334 
Q 3166 4334 3770 3707 
Q 4375 3081 4375 2144 
Q 4375 1178 3765 540 
Q 3156 -97 2291 -97 
Q 1416 -97 820 525 
Q 225 1147 225 2134 
Q 225 3144 913 3781 
Q 1509 4334 2341 4334 
z
M 2281 4106 
Q 1713 4106 1369 3684 
Q 941 3159 941 2147 
Q 941 1109 1384 550 
Q 1725 125 2284 125 
Q 2881 125 3270 590 
Q 3659 1056 3659 2059 
Q 3659 3147 3231 3681 
Q 2888 4106 2281 4106 
z
" transform="scale(0.015625)"/>
      <path id="TimesNewRomanPSMT-54" d="M 3703 4238 
L 3750 3244 
L 3631 3244 
Q 3597 3506 3538 3619 
Q 3441 3800 3280 3886 
Q 3119 3972 2856 3972 
L 2259 3972 
L 2259 734 
Q 2259 344 2344 247 
Q 2463 116 2709 116 
L 2856 116 
L 2856 0 
L 1059 0 
L 1059 116 
L 1209 116 
Q 1478 116 1591 278 
Q 1659 378 1659 734 
L 1659 3972 
L 1150 3972 
Q 853 3972 728 3928 
Q 566 3869 450 3700 
Q 334 3531 313 3244 
L 194 3244 
L 244 4238 
L 3703 4238 
z
" transform="scale(0.015625)"/>
      <path id="TimesNewRomanPSMT-3a" d="M 903 2950 
Q 1047 2950 1148 2848 
Q 1250 2747 1250 2603 
Q 1250 2459 1148 2357 
Q 1047 2256 903 2256 
Q 759 2256 657 2357 
Q 556 2459 556 2603 
Q 556 2747 657 2848 
Q 759 2950 903 2950 
z
M 897 609 
Q 1044 609 1145 506 
Q 1247 403 1247 259 
Q 1247 116 1144 14 
Q 1041 -88 897 -88 
Q 753 -88 651 14 
Q 550 116 550 259 
Q 550 403 651 506 
Q 753 609 897 609 
z
" transform="scale(0.015625)"/>
     </defs>
     <use xlink:href="#TimesNewRomanPSMT-42" transform="translate(0 0.409375)"/>
     <use xlink:href="#TimesNewRomanPSMT-4f" transform="translate(66.699219 0.409375)"/>
     <use xlink:href="#TimesNewRomanPSMT-54" transform="translate(138.916016 0.409375)"/>
     <use xlink:href="#TimesNewRomanPSMT-3a" transform="translate(200 0.409375)"/>
     <use xlink:href="#TimesNewRomanPSMT-20" transform="translate(227.783203 0.409375)"/>
     <use xlink:href="#TimesNewRomanPSMT-31" transform="translate(252.783203 0.409375)"/>
     <use xlink:href="#TimesNewRomanPSMT-31" transform="translate(302.783203 0.409375)"/>
     <use xlink:href="#TimesNewRomanPSMT-32" transform="translate(352.783203 0.409375)"/>
     <use xlink:href="#TimesNewRomanPSMT-2e" transform="translate(402.783203 0.409375)"/>
     <use xlink:href="#TimesNewRomanPSMT-38" transform="translate(427.783203 0.409375)"/>
     <use xlink:href="#TimesNewRomanPSMT-36" transform="translate(477.783203 0.409375)"/>
     <use xlink:href="#TimesNewRomanPSMT-20" transform="translate(527.783203 0.409375)"/>
     <use xlink:href="#TimesNewRomanPSMT-6d" transform="translate(552.783203 0.409375)"/>
     <use xlink:href="#TimesNewRomanPSMT-41" transform="translate(630.566406 0.409375)"/>
     <use xlink:href="#TimesNewRomanPSMT-2f" transform="translate(702.783203 0.409375)"/>
     <use xlink:href="#TimesNewRomanPSMT-63" transform="translate(730.566406 0.409375)"/>
     <use xlink:href="#TimesNewRomanPSMT-6d" transform="translate(774.951172 0.409375)"/>
     <use xlink:href="#STIXGeneral-Regular-32" transform="translate(854.277656 35.684375)scale(0.7)"/>
     <use xlink:href="#TimesNewRomanPSMT-20" transform="translate(893.687021 0.409375)"/>
    </g>
    <!-- 30K: 98.44 mA/cm$^2$  -->
    <g transform="translate(166.564681 349.841667)scale(0.2 -0.2)">
     <defs>
      <path id="TimesNewRomanPSMT-4b" d="M 1913 2350 
L 3475 797 
Q 3859 413 4131 273 
Q 4403 134 4675 116 
L 4675 0 
L 2659 0 
L 2659 116 
Q 2841 116 2920 177 
Q 3000 238 3000 313 
Q 3000 388 2970 447 
Q 2941 506 2775 669 
L 1313 2116 
L 1313 750 
Q 1313 428 1353 325 
Q 1384 247 1484 191 
Q 1619 116 1769 116 
L 1913 116 
L 1913 0 
L 106 0 
L 106 116 
L 256 116 
Q 519 116 638 269 
Q 713 369 713 750 
L 713 3488 
Q 713 3809 672 3916 
Q 641 3991 544 4047 
Q 406 4122 256 4122 
L 106 4122 
L 106 4238 
L 1913 4238 
L 1913 4122 
L 1769 4122 
Q 1622 4122 1484 4050 
Q 1388 4000 1350 3900 
Q 1313 3800 1313 3488 
L 1313 2191 
Q 1375 2250 1741 2588 
Q 2669 3438 2863 3722 
Q 2947 3847 2947 3941 
Q 2947 4013 2881 4067 
Q 2816 4122 2659 4122 
L 2563 4122 
L 2563 4238 
L 4119 4238 
L 4119 4122 
Q 3981 4119 3868 4084 
Q 3756 4050 3593 3951 
Q 3431 3853 3194 3634 
Q 3125 3572 2559 2994 
L 1913 2350 
z
" transform="scale(0.015625)"/>
     </defs>
     <use xlink:href="#TimesNewRomanPSMT-33" transform="translate(0 0.409375)"/>
     <use xlink:href="#TimesNewRomanPSMT-30" transform="translate(50 0.409375)"/>
     <use xlink:href="#TimesNewRomanPSMT-4b" transform="translate(100 0.409375)"/>
     <use xlink:href="#TimesNewRomanPSMT-3a" transform="translate(172.216797 0.409375)"/>
     <use xlink:href="#TimesNewRomanPSMT-20" transform="translate(200 0.409375)"/>
     <use xlink:href="#TimesNewRomanPSMT-39" transform="translate(225 0.409375)"/>
     <use xlink:href="#TimesNewRomanPSMT-38" transform="translate(275 0.409375)"/>
     <use xlink:href="#TimesNewRomanPSMT-2e" transform="translate(325 0.409375)"/>
     <use xlink:href="#TimesNewRomanPSMT-34" transform="translate(350 0.409375)"/>
     <use xlink:href="#TimesNewRomanPSMT-34" transform="translate(400 0.409375)"/>
     <use xlink:href="#TimesNewRomanPSMT-20" transform="translate(450 0.409375)"/>
     <use xlink:href="#TimesNewRomanPSMT-6d" transform="translate(475 0.409375)"/>
     <use xlink:href="#TimesNewRomanPSMT-41" transform="translate(552.783203 0.409375)"/>
     <use xlink:href="#TimesNewRomanPSMT-2f" transform="translate(625 0.409375)"/>
     <use xlink:href="#TimesNewRomanPSMT-63" transform="translate(652.783203 0.409375)"/>
     <use xlink:href="#TimesNewRomanPSMT-6d" transform="translate(697.167969 0.409375)"/>
     <use xlink:href="#STIXGeneral-Regular-32" transform="translate(776.494453 35.684375)scale(0.7)"/>
     <use xlink:href="#TimesNewRomanPSMT-20" transform="translate(815.903817 0.409375)"/>
    </g>
    <!-- 60K: 84.53 mA/cm$^2$  -->
    <g transform="translate(166.564681 370.784792)scale(0.2 -0.2)">
     <defs>
      <path id="TimesNewRomanPSMT-35" d="M 2778 4238 
L 2534 3706 
L 1259 3706 
L 981 3138 
Q 1809 3016 2294 2522 
Q 2709 2097 2709 1522 
Q 2709 1188 2573 903 
Q 2438 619 2231 419 
Q 2025 219 1772 97 
Q 1413 -75 1034 -75 
Q 653 -75 479 54 
Q 306 184 306 341 
Q 306 428 378 495 
Q 450 563 559 563 
Q 641 563 702 538 
Q 763 513 909 409 
Q 1144 247 1384 247 
Q 1750 247 2026 523 
Q 2303 800 2303 1197 
Q 2303 1581 2056 1914 
Q 1809 2247 1375 2428 
Q 1034 2569 447 2591 
L 1259 4238 
L 2778 4238 
z
" transform="scale(0.015625)"/>
     </defs>
     <use xlink:href="#TimesNewRomanPSMT-36" transform="translate(0 0.409375)"/>
     <use xlink:href="#TimesNewRomanPSMT-30" transform="translate(50 0.409375)"/>
     <use xlink:href="#TimesNewRomanPSMT-4b" transform="translate(100 0.409375)"/>
     <use xlink:href="#TimesNewRomanPSMT-3a" transform="translate(172.216797 0.409375)"/>
     <use xlink:href="#TimesNewRomanPSMT-20" transform="translate(200 0.409375)"/>
     <use xlink:href="#TimesNewRomanPSMT-38" transform="translate(225 0.409375)"/>
     <use xlink:href="#TimesNewRomanPSMT-34" transform="translate(275 0.409375)"/>
     <use xlink:href="#TimesNewRomanPSMT-2e" transform="translate(325 0.409375)"/>
     <use xlink:href="#TimesNewRomanPSMT-35" transform="translate(350 0.409375)"/>
     <use xlink:href="#TimesNewRomanPSMT-33" transform="translate(400 0.409375)"/>
     <use xlink:href="#TimesNewRomanPSMT-20" transform="translate(450 0.409375)"/>
     <use xlink:href="#TimesNewRomanPSMT-6d" transform="translate(475 0.409375)"/>
     <use xlink:href="#TimesNewRomanPSMT-41" transform="translate(552.783203 0.409375)"/>
     <use xlink:href="#TimesNewRomanPSMT-2f" transform="translate(625 0.409375)"/>
     <use xlink:href="#TimesNewRomanPSMT-63" transform="translate(652.783203 0.409375)"/>
     <use xlink:href="#TimesNewRomanPSMT-6d" transform="translate(697.167969 0.409375)"/>
     <use xlink:href="#STIXGeneral-Regular-32" transform="translate(776.494453 35.684375)scale(0.7)"/>
     <use xlink:href="#TimesNewRomanPSMT-20" transform="translate(815.903817 0.409375)"/>
    </g>
    <!-- 90K: 71.85 mA/cm$^2$ -->
    <g transform="translate(166.564681 391.727917)scale(0.2 -0.2)">
     <defs>
      <path id="TimesNewRomanPSMT-37" d="M 644 4238 
L 2916 4238 
L 2916 4119 
L 1503 -88 
L 1153 -88 
L 2419 3728 
L 1253 3728 
Q 900 3728 750 3644 
Q 488 3500 328 3200 
L 238 3234 
L 644 4238 
z
" transform="scale(0.015625)"/>
     </defs>
     <use xlink:href="#TimesNewRomanPSMT-39" transform="translate(0 0.409375)"/>
     <use xlink:href="#TimesNewRomanPSMT-30" transform="translate(50 0.409375)"/>
     <use xlink:href="#TimesNewRomanPSMT-4b" transform="translate(100 0.409375)"/>
     <use xlink:href="#TimesNewRomanPSMT-3a" transform="translate(172.216797 0.409375)"/>
     <use xlink:href="#TimesNewRomanPSMT-20" transform="translate(200 0.409375)"/>
     <use xlink:href="#TimesNewRomanPSMT-37" transform="translate(225 0.409375)"/>
     <use xlink:href="#TimesNewRomanPSMT-31" transform="translate(275 0.409375)"/>
     <use xlink:href="#TimesNewRomanPSMT-2e" transform="translate(325 0.409375)"/>
     <use xlink:href="#TimesNewRomanPSMT-38" transform="translate(350 0.409375)"/>
     <use xlink:href="#TimesNewRomanPSMT-35" transform="translate(400 0.409375)"/>
     <use xlink:href="#TimesNewRomanPSMT-20" transform="translate(450 0.409375)"/>
     <use xlink:href="#TimesNewRomanPSMT-6d" transform="translate(475 0.409375)"/>
     <use xlink:href="#TimesNewRomanPSMT-41" transform="translate(552.783203 0.409375)"/>
     <use xlink:href="#TimesNewRomanPSMT-2f" transform="translate(625 0.409375)"/>
     <use xlink:href="#TimesNewRomanPSMT-63" transform="translate(652.783203 0.409375)"/>
     <use xlink:href="#TimesNewRomanPSMT-6d" transform="translate(697.167969 0.409375)"/>
     <use xlink:href="#STIXGeneral-Regular-32" transform="translate(776.494453 35.684375)scale(0.7)"/>
    </g>
   </g>
   <g id="text_11">
    <!-- O$_2$, 1.5 atm, 80$^o$C, 100%RH, An -->
    <g transform="translate(-234.204562 130.823198)scale(0.2 -0.2)">
     <defs>
      <path id="STIXGeneral-Italic-6f" d="M 2995 1926 
Q 2995 1562 2812 1168 
Q 2630 774 2317 461 
Q 1786 -70 1114 -70 
Q 666 -70 419 163 
Q 173 397 173 819 
Q 173 1350 496 1856 
Q 819 2362 1325 2630 
Q 1683 2822 2093 2822 
Q 2490 2822 2742 2582 
Q 2995 2342 2995 1926 
z
M 2458 2086 
Q 2458 2374 2336 2531 
Q 2214 2688 2003 2688 
Q 1574 2688 1184 2106 
Q 710 1382 710 646 
Q 710 365 844 214 
Q 979 64 1210 64 
Q 1600 64 1984 595 
Q 2202 890 2330 1302 
Q 2458 1715 2458 2086 
z
" transform="scale(0.015625)"/>
      <path id="TimesNewRomanPSMT-25" d="M 4350 4334 
L 1263 -175 
L 984 -175 
L 4072 4334 
L 4350 4334 
z
M 1138 4334 
Q 1559 4334 1792 3984 
Q 2025 3634 2025 3181 
Q 2025 2638 1762 2341 
Q 1500 2044 1131 2044 
Q 884 2044 678 2180 
Q 472 2316 348 2584 
Q 225 2853 225 3181 
Q 225 3509 350 3786 
Q 475 4063 692 4198 
Q 909 4334 1138 4334 
z
M 1128 4159 
Q 969 4159 845 3971 
Q 722 3784 722 3184 
Q 722 2750 791 2522 
Q 844 2350 956 2256 
Q 1022 2200 1119 2200 
Q 1269 2200 1375 2363 
Q 1531 2603 1531 3166 
Q 1531 3759 1378 4000 
Q 1278 4159 1128 4159 
z
M 4206 2103 
Q 4428 2103 4648 1962 
Q 4869 1822 4989 1553 
Q 5109 1284 5109 963 
Q 5109 409 4843 117 
Q 4578 -175 4216 -175 
Q 3988 -175 3773 -34 
Q 3559 106 3436 367 
Q 3313 628 3313 963 
Q 3313 1291 3436 1562 
Q 3559 1834 3773 1968 
Q 3988 2103 4206 2103 
z
M 4209 1938 
Q 4059 1938 3950 1769 
Q 3809 1550 3809 941 
Q 3809 381 3953 159 
Q 4059 0 4209 0 
Q 4353 0 4466 172 
Q 4616 400 4616 956 
Q 4616 1544 4466 1778 
Q 4363 1938 4209 1938 
z
" transform="scale(0.015625)"/>
      <path id="TimesNewRomanPSMT-52" d="M 4325 0 
L 3194 0 
L 1759 1981 
Q 1600 1975 1500 1975 
Q 1459 1975 1412 1976 
Q 1366 1978 1316 1981 
L 1316 750 
Q 1316 350 1403 253 
Q 1522 116 1759 116 
L 1925 116 
L 1925 0 
L 109 0 
L 109 116 
L 269 116 
Q 538 116 653 291 
Q 719 388 719 750 
L 719 3488 
Q 719 3888 631 3984 
Q 509 4122 269 4122 
L 109 4122 
L 109 4238 
L 1653 4238 
Q 2328 4238 2648 4139 
Q 2969 4041 3192 3777 
Q 3416 3513 3416 3147 
Q 3416 2756 3161 2468 
Q 2906 2181 2372 2063 
L 3247 847 
Q 3547 428 3762 290 
Q 3978 153 4325 116 
L 4325 0 
z
M 1316 2178 
Q 1375 2178 1419 2176 
Q 1463 2175 1491 2175 
Q 2097 2175 2405 2437 
Q 2713 2700 2713 3106 
Q 2713 3503 2464 3751 
Q 2216 4000 1806 4000 
Q 1625 4000 1316 3941 
L 1316 2178 
z
" transform="scale(0.015625)"/>
     </defs>
     <use xlink:href="#TimesNewRomanPSMT-4f" transform="translate(0 0.28125)"/>
     <use xlink:href="#STIXGeneral-Regular-32" transform="translate(73.760078 -12.946875)scale(0.7)"/>
     <use xlink:href="#TimesNewRomanPSMT-2c" transform="translate(113.169442 0.28125)"/>
     <use xlink:href="#TimesNewRomanPSMT-20" transform="translate(138.169442 0.28125)"/>
     <use xlink:href="#TimesNewRomanPSMT-31" transform="translate(163.169442 0.28125)"/>
     <use xlink:href="#TimesNewRomanPSMT-2e" transform="translate(213.169442 0.28125)"/>
     <use xlink:href="#TimesNewRomanPSMT-35" transform="translate(238.169442 0.28125)"/>
     <use xlink:href="#TimesNewRomanPSMT-20" transform="translate(288.169442 0.28125)"/>
     <use xlink:href="#TimesNewRomanPSMT-61" transform="translate(313.169442 0.28125)"/>
     <use xlink:href="#TimesNewRomanPSMT-74" transform="translate(357.554208 0.28125)"/>
     <use xlink:href="#TimesNewRomanPSMT-6d" transform="translate(385.337411 0.28125)"/>
     <use xlink:href="#TimesNewRomanPSMT-2c" transform="translate(463.120614 0.28125)"/>
     <use xlink:href="#TimesNewRomanPSMT-20" transform="translate(488.120614 0.28125)"/>
     <use xlink:href="#TimesNewRomanPSMT-38" transform="translate(513.120614 0.28125)"/>
     <use xlink:href="#TimesNewRomanPSMT-30" transform="translate(563.120614 0.28125)"/>
     <use xlink:href="#STIXGeneral-Italic-6f" transform="translate(614.663896 35.55625)scale(0.7)"/>
     <use xlink:href="#TimesNewRomanPSMT-43" transform="translate(654.07326 0.28125)"/>
     <use xlink:href="#TimesNewRomanPSMT-2c" transform="translate(720.772479 0.28125)"/>
     <use xlink:href="#TimesNewRomanPSMT-20" transform="translate(745.772479 0.28125)"/>
     <use xlink:href="#TimesNewRomanPSMT-31" transform="translate(770.772479 0.28125)"/>
     <use xlink:href="#TimesNewRomanPSMT-30" transform="translate(820.772479 0.28125)"/>
     <use xlink:href="#TimesNewRomanPSMT-30" transform="translate(870.772479 0.28125)"/>
     <use xlink:href="#TimesNewRomanPSMT-25" transform="translate(920.772479 0.28125)"/>
     <use xlink:href="#TimesNewRomanPSMT-52" transform="translate(1004.07326 0.28125)"/>
     <use xlink:href="#TimesNewRomanPSMT-48" transform="translate(1070.772479 0.28125)"/>
     <use xlink:href="#TimesNewRomanPSMT-2c" transform="translate(1142.989276 0.28125)"/>
     <use xlink:href="#TimesNewRomanPSMT-20" transform="translate(1167.989276 0.28125)"/>
     <use xlink:href="#TimesNewRomanPSMT-41" transform="translate(1192.989276 0.28125)"/>
     <use xlink:href="#TimesNewRomanPSMT-6e" transform="translate(1265.206072 0.28125)"/>
    </g>
   </g>
   <g id="text_12">
    <!-- PtCo/HSC H$_2$/N$_2$ AST, Mass Activity at 0.9 V -->
    <g transform="translate(107.22 54.48)scale(0.24 -0.24)">
     <defs>
      <path id="TimesNewRomanPSMT-50" d="M 1313 1984 
L 1313 750 
Q 1313 350 1400 253 
Q 1519 116 1759 116 
L 1922 116 
L 1922 0 
L 106 0 
L 106 116 
L 266 116 
Q 534 116 650 291 
Q 713 388 713 750 
L 713 3488 
Q 713 3888 628 3984 
Q 506 4122 266 4122 
L 106 4122 
L 106 4238 
L 1659 4238 
Q 2228 4238 2556 4120 
Q 2884 4003 3109 3725 
Q 3334 3447 3334 3066 
Q 3334 2547 2992 2222 
Q 2650 1897 2025 1897 
Q 1872 1897 1694 1919 
Q 1516 1941 1313 1984 
z
M 1313 2163 
Q 1478 2131 1606 2115 
Q 1734 2100 1825 2100 
Q 2150 2100 2386 2351 
Q 2622 2603 2622 3003 
Q 2622 3278 2509 3514 
Q 2397 3750 2190 3867 
Q 1984 3984 1722 3984 
Q 1563 3984 1313 3925 
L 1313 2163 
z
" transform="scale(0.015625)"/>
      <path id="TimesNewRomanPSMT-53" d="M 2934 4334 
L 2934 2869 
L 2819 2869 
Q 2763 3291 2617 3541 
Q 2472 3791 2203 3937 
Q 1934 4084 1647 4084 
Q 1322 4084 1109 3886 
Q 897 3688 897 3434 
Q 897 3241 1031 3081 
Q 1225 2847 1953 2456 
Q 2547 2138 2764 1967 
Q 2981 1797 3098 1565 
Q 3216 1334 3216 1081 
Q 3216 600 2842 251 
Q 2469 -97 1881 -97 
Q 1697 -97 1534 -69 
Q 1438 -53 1133 45 
Q 828 144 747 144 
Q 669 144 623 97 
Q 578 50 556 -97 
L 441 -97 
L 441 1356 
L 556 1356 
Q 638 900 775 673 
Q 913 447 1195 297 
Q 1478 147 1816 147 
Q 2206 147 2432 353 
Q 2659 559 2659 841 
Q 2659 997 2573 1156 
Q 2488 1316 2306 1453 
Q 2184 1547 1640 1851 
Q 1097 2156 867 2337 
Q 638 2519 519 2737 
Q 400 2956 400 3219 
Q 400 3675 750 4004 
Q 1100 4334 1641 4334 
Q 1978 4334 2356 4169 
Q 2531 4091 2603 4091 
Q 2684 4091 2736 4139 
Q 2788 4188 2819 4334 
L 2934 4334 
z
" transform="scale(0.015625)"/>
      <path id="TimesNewRomanPSMT-4e" d="M -84 4238 
L 1066 4238 
L 3656 1059 
L 3656 3503 
Q 3656 3894 3569 3991 
Q 3453 4122 3203 4122 
L 3056 4122 
L 3056 4238 
L 4531 4238 
L 4531 4122 
L 4381 4122 
Q 4113 4122 4000 3959 
Q 3931 3859 3931 3503 
L 3931 -69 
L 3819 -69 
L 1025 3344 
L 1025 734 
Q 1025 344 1109 247 
Q 1228 116 1475 116 
L 1625 116 
L 1625 0 
L 150 0 
L 150 116 
L 297 116 
Q 569 116 681 278 
Q 750 378 750 734 
L 750 3681 
Q 566 3897 470 3965 
Q 375 4034 191 4094 
Q 100 4122 -84 4122 
L -84 4238 
z
" transform="scale(0.015625)"/>
      <path id="TimesNewRomanPSMT-4d" d="M 2619 0 
L 981 3566 
L 981 734 
Q 981 344 1066 247 
Q 1181 116 1431 116 
L 1581 116 
L 1581 0 
L 106 0 
L 106 116 
L 256 116 
Q 525 116 638 278 
Q 706 378 706 734 
L 706 3503 
Q 706 3784 644 3909 
Q 600 4000 483 4061 
Q 366 4122 106 4122 
L 106 4238 
L 1306 4238 
L 2844 922 
L 4356 4238 
L 5556 4238 
L 5556 4122 
L 5409 4122 
Q 5138 4122 5025 3959 
Q 4956 3859 4956 3503 
L 4956 734 
Q 4956 344 5044 247 
Q 5159 116 5409 116 
L 5556 116 
L 5556 0 
L 3756 0 
L 3756 116 
L 3906 116 
Q 4178 116 4288 278 
Q 4356 378 4356 734 
L 4356 3566 
L 2722 0 
L 2619 0 
z
" transform="scale(0.015625)"/>
     </defs>
     <use xlink:href="#TimesNewRomanPSMT-50" transform="translate(0 0.5625)"/>
     <use xlink:href="#TimesNewRomanPSMT-74" transform="translate(55.615234 0.5625)"/>
     <use xlink:href="#TimesNewRomanPSMT-43" transform="translate(83.398438 0.5625)"/>
     <use xlink:href="#TimesNewRomanPSMT-6f" transform="translate(150.097656 0.5625)"/>
     <use xlink:href="#TimesNewRomanPSMT-2f" transform="translate(200.097656 0.5625)"/>
     <use xlink:href="#TimesNewRomanPSMT-48" transform="translate(227.880859 0.5625)"/>
     <use xlink:href="#TimesNewRomanPSMT-53" transform="translate(300.097656 0.5625)"/>
     <use xlink:href="#TimesNewRomanPSMT-43" transform="translate(355.712891 0.5625)"/>
     <use xlink:href="#TimesNewRomanPSMT-20" transform="translate(422.412109 0.5625)"/>
     <use xlink:href="#TimesNewRomanPSMT-48" transform="translate(447.412109 0.5625)"/>
     <use xlink:href="#STIXGeneral-Regular-32" transform="translate(521.172187 -12.665625)scale(0.7)"/>
     <use xlink:href="#TimesNewRomanPSMT-2f" transform="translate(560.581552 0.5625)"/>
     <use xlink:href="#TimesNewRomanPSMT-4e" transform="translate(588.364755 0.5625)"/>
     <use xlink:href="#STIXGeneral-Regular-32" transform="translate(662.124833 -12.665625)scale(0.7)"/>
     <use xlink:href="#TimesNewRomanPSMT-20" transform="translate(701.534197 0.5625)"/>
     <use xlink:href="#TimesNewRomanPSMT-41" transform="translate(726.534197 0.5625)"/>
     <use xlink:href="#TimesNewRomanPSMT-53" transform="translate(798.750994 0.5625)"/>
     <use xlink:href="#TimesNewRomanPSMT-54" transform="translate(854.366229 0.5625)"/>
     <use xlink:href="#TimesNewRomanPSMT-2c" transform="translate(915.450213 0.5625)"/>
     <use xlink:href="#TimesNewRomanPSMT-20" transform="translate(940.450213 0.5625)"/>
     <use xlink:href="#TimesNewRomanPSMT-4d" transform="translate(965.450213 0.5625)"/>
     <use xlink:href="#TimesNewRomanPSMT-61" transform="translate(1054.366229 0.5625)"/>
     <use xlink:href="#TimesNewRomanPSMT-73" transform="translate(1098.750994 0.5625)"/>
     <use xlink:href="#TimesNewRomanPSMT-73" transform="translate(1137.66701 0.5625)"/>
     <use xlink:href="#TimesNewRomanPSMT-20" transform="translate(1176.583026 0.5625)"/>
     <use xlink:href="#TimesNewRomanPSMT-41" transform="translate(1201.583026 0.5625)"/>
     <use xlink:href="#TimesNewRomanPSMT-63" transform="translate(1273.799822 0.5625)"/>
     <use xlink:href="#TimesNewRomanPSMT-74" transform="translate(1318.184588 0.5625)"/>
     <use xlink:href="#TimesNewRomanPSMT-69" transform="translate(1345.967791 0.5625)"/>
     <use xlink:href="#TimesNewRomanPSMT-76" transform="translate(1373.750994 0.5625)"/>
     <use xlink:href="#TimesNewRomanPSMT-69" transform="translate(1423.750994 0.5625)"/>
     <use xlink:href="#TimesNewRomanPSMT-74" transform="translate(1451.534197 0.5625)"/>
     <use xlink:href="#TimesNewRomanPSMT-79" transform="translate(1479.317401 0.5625)"/>
     <use xlink:href="#TimesNewRomanPSMT-20" transform="translate(1529.317401 0.5625)"/>
     <use xlink:href="#TimesNewRomanPSMT-61" transform="translate(1554.317401 0.5625)"/>
     <use xlink:href="#TimesNewRomanPSMT-74" transform="translate(1598.702166 0.5625)"/>
     <use xlink:href="#TimesNewRomanPSMT-20" transform="translate(1626.485369 0.5625)"/>
     <use xlink:href="#TimesNewRomanPSMT-30" transform="translate(1651.485369 0.5625)"/>
     <use xlink:href="#TimesNewRomanPSMT-2e" transform="translate(1701.485369 0.5625)"/>
     <use xlink:href="#TimesNewRomanPSMT-39" transform="translate(1726.485369 0.5625)"/>
     <use xlink:href="#TimesNewRomanPSMT-20" transform="translate(1776.485369 0.5625)"/>
     <use xlink:href="#TimesNewRomanPSMT-56" transform="translate(1801.485369 0.5625)"/>
    </g>
   </g>
   <g id="legend_1">
    <g id="patch_7">
     <path d="M 465.2 189.5925 
L 569.2 189.5925 
Q 573.2 189.5925 573.2 185.5925 
L 573.2 74.48 
Q 573.2 70.48 569.2 70.48 
L 465.2 70.48 
Q 461.2 70.48 461.2 74.48 
L 461.2 185.5925 
Q 461.2 189.5925 465.2 189.5925 
z
" style="fill: #ffffff; stroke: #cccccc; stroke-linejoin: miter"/>
    </g>
    <g id="line2d_39">
     <path d="M 469.2 85.48 
L 489.2 85.48 
L 509.2 85.48 
" style="fill: none; stroke: #0173b2; stroke-width: 2; stroke-linecap: square"/>
    </g>
    <g id="text_13">
     <!-- BOT -->
     <g transform="translate(525.2 92.48)scale(0.2 -0.2)">
      <use xlink:href="#TimesNewRomanPSMT-42"/>
      <use xlink:href="#TimesNewRomanPSMT-4f" x="66.699219"/>
      <use xlink:href="#TimesNewRomanPSMT-54" x="138.916016"/>
     </g>
    </g>
    <g id="line2d_40">
     <path d="M 469.2 113.758125 
L 489.2 113.758125 
L 509.2 113.758125 
" style="fill: none; stroke: #de8f05; stroke-width: 2; stroke-linecap: square"/>
    </g>
    <g id="text_14">
     <!-- 30K -->
     <g transform="translate(525.2 120.758125)scale(0.2 -0.2)">
      <use xlink:href="#TimesNewRomanPSMT-33"/>
      <use xlink:href="#TimesNewRomanPSMT-30" x="50"/>
      <use xlink:href="#TimesNewRomanPSMT-4b" x="100"/>
     </g>
    </g>
    <g id="line2d_41">
     <path d="M 469.2 142.03625 
L 489.2 142.03625 
L 509.2 142.03625 
" style="fill: none; stroke: #029e73; stroke-width: 2; stroke-linecap: square"/>
    </g>
    <g id="text_15">
     <!-- 60K -->
     <g transform="translate(525.2 149.03625)scale(0.2 -0.2)">
      <use xlink:href="#TimesNewRomanPSMT-36"/>
      <use xlink:href="#TimesNewRomanPSMT-30" x="50"/>
      <use xlink:href="#TimesNewRomanPSMT-4b" x="100"/>
     </g>
    </g>
    <g id="line2d_42">
     <path d="M 469.2 170.314375 
L 489.2 170.314375 
L 509.2 170.314375 
" style="fill: none; stroke: #d55e00; stroke-width: 2; stroke-linecap: square"/>
    </g>
    <g id="text_16">
     <!-- 90K -->
     <g transform="translate(525.2 177.314375)scale(0.2 -0.2)">
      <use xlink:href="#TimesNewRomanPSMT-39"/>
      <use xlink:href="#TimesNewRomanPSMT-30" x="50"/>
      <use xlink:href="#TimesNewRomanPSMT-4b" x="100"/>
     </g>
    </g>
   </g>
  </g>
 </g>
 <defs>
  <clipPath id="pbfc5a1d306">
   <rect x="81" y="60.48" width="502.2" height="388.08"/>
  </clipPath>
 </defs>
</svg>
